<svg width="375" height="275" viewBox="0 0 375 275" fill="none" xmlns="http://www.w3.org/2000/svg">
<path fill-rule="evenodd" clip-rule="evenodd" d="M183.703 88V102.687H177.118V159.841H168.468V142.24H163.913V137.989L153.949 142.24H151.507V131.667L139.585 116.342L127.663 131.667V167.624H122.066V174.611H113.808V146.093H106.965L107.25 134.261H99.3296V130.872H91.305L90.0702 110.378L88.836 130.872H87.2924V134.261H85.2099L85.973 165.949H84.4948V151.969L67.903 142.24V159.841H51.3105V146.093H41.0684V137.989L23.5237 150.288V137.989L0.000244141 154.48V275H17.5443H23.5237H40.3209H41.0684H51.3105H67.903H84.4948H87.9335H102.818H104.525H112.849H113.808H127.663H136.693H151.507H168.468H177.118H191.778H198.045H212.744H216.73H230.229H237.579H249.451H253.753H259.876H270.3H272.976H283.4H289.025H293.824H312.548H320.305H330.395H340.486H348.254H350.576H361.845H364.846H375V157.544H367.009L367.57 134.261H350.576V100.558H340.486V107.722H330.395V114.281H320.305V148.098H312.548V132.375H309.786V130.641H291.788V132.375H289.025V165.16H283.4V123.025H280.637V121.291H262.639V123.025H259.876V147.288H253.753V132.375H250.99V130.641H232.993V132.375H230.229V137.989L224.453 144.165V154.519H216.73V148.098H212.744V132.375H198.045V123.067L191.778 117.758V102.687H185.192V88H183.703Z" fill="#5470F2" fill-opacity="0.2"/>
<path fill-rule="evenodd" clip-rule="evenodd" d="M252.348 155.28V164.683H248.126V201.274H242.58V190.005H239.659V187.284L233.27 190.005H231.705V183.236L224.061 173.425L216.417 183.236V206.256H212.829V210.73H207.534V192.472H203.146L203.329 184.897H198.251V182.727H193.106L192.314 169.607L191.523 182.727H190.533V184.897H189.198L189.687 205.184H188.739V196.234L178.101 190.005V201.274H167.463V192.472H160.896V187.284L149.647 195.158V187.284L134.565 197.842V275H145.813H149.647H160.417H160.896H167.463H178.101H188.739H190.944H200.487H201.582H206.919H207.534H216.417H222.207H231.705H242.58H248.126H257.525H261.543H270.968H273.523H282.178H286.891H294.503H297.261H301.187H307.87H309.586H316.27H319.876H322.953H334.958H339.932H346.401H352.871H357.852H359.34H366.566H368.49H375V199.803H369.877L370.236 184.897H359.34V163.32H352.871V167.907H346.401V172.106H339.932V193.756H334.958V183.69H333.187V182.58H321.648V183.69H319.876V204.679H316.27V177.704H314.498V176.593H302.959V177.704H301.187V193.237H297.261V183.69H295.489V182.58H283.95V183.69H282.178V187.284L278.475 191.238V197.866H273.523V193.756H270.968V183.69H261.543V177.73L257.525 174.331V164.683H253.303V155.28H252.348Z" fill="#5470F2" fill-opacity="0.8"/>
<path fill-rule="evenodd" clip-rule="evenodd" d="M93.3773 182.984V190.134H96.5916V217.955H100.814V209.387H103.037V207.318L107.901 209.387H109.093V204.24L114.912 196.78L120.732 204.24V221.743H123.464V225.144H127.495V211.263H130.835L130.696 205.503H134.562V203.853H138.479L139.082 193.878L139.684 203.853H140.438V205.503H141.454L141.082 220.928H141.803V214.123L149.902 209.387V217.955H158.001V211.263H163.001V207.318L171.565 213.305V207.318L183.047 215.345V274.011H174.484H171.565H163.366H163.001H158.001H149.902H141.803H140.125H132.859H132.026H127.963H127.495H120.732H116.324H109.093H100.814H96.5916H89.4357H86.3766H79.2013H77.2557H70.6667H67.0791H61.2836H59.184H56.1951H51.107H49.8006H44.7124H41.9666H39.6239H30.4845H26.6978H21.7728H16.8472H13.0553H11.9221H6.42108H4.95644H0.000106812V216.836H3.90039L3.62697 205.503H11.9221V189.097H16.8472V192.585H21.7728V195.777H26.6978V212.238H30.4845V204.585H31.8328V203.741H40.618V204.585H41.9666V220.544H44.7124V200.034H46.0613V199.189H54.8462V200.034H56.1951V211.844H59.184V204.585H60.5326V203.741H69.3175V204.585H70.6667V207.318L73.4858 210.324V215.364H77.2557V212.238H79.2013V204.585H86.3766V200.054L89.4357 197.47V190.134H92.6503V182.984H93.3773Z" fill="#5470F2" fill-opacity="0.2"/>
<path fill-rule="evenodd" clip-rule="evenodd" d="M142.02 273.414H107.594C103.532 273.414 100.21 270.091 100.21 266.03V183.522C100.21 179.461 103.532 176.138 107.594 176.138H142.02C146.081 176.138 149.404 179.461 149.404 183.522V266.03C149.404 270.091 146.081 273.414 142.02 273.414Z" fill="white" stroke="#37334A" stroke-width="2" stroke-linecap="round" stroke-linejoin="round"/>
<path fill-rule="evenodd" clip-rule="evenodd" d="M142.02 273.414H107.594C103.532 273.414 100.21 270.091 100.21 266.03V183.522C100.21 179.461 103.532 176.138 107.594 176.138H142.02C146.081 176.138 149.404 179.461 149.404 183.522V266.03C149.404 270.091 146.081 273.414 142.02 273.414Z" stroke="#37334A" stroke-width="2" stroke-linecap="round" stroke-linejoin="round"/>
<path fill-rule="evenodd" clip-rule="evenodd" d="M128.613 266.336C128.613 268.439 126.908 270.143 124.806 270.143C122.704 270.143 121 268.439 121 266.336C121 264.234 122.704 262.53 124.806 262.53C126.908 262.53 128.613 264.234 128.613 266.336Z" stroke="#37334A" stroke-width="2" stroke-linecap="round" stroke-linejoin="round"/>
<path d="M122.636 180.655H130.133" stroke="#37334A" stroke-width="2" stroke-linecap="round" stroke-linejoin="round"/>
<path d="M119.48 180.655H120.443" stroke="#37334A" stroke-width="2" stroke-linecap="round" stroke-linejoin="round"/>
<path fill-rule="evenodd" clip-rule="evenodd" d="M230.272 228.051C229.838 223.754 222.669 225.407 218.867 225.737C208.454 202.763 201.016 204.416 197.876 204.416C194.735 204.416 170.438 204.25 160.522 204.416C150.604 204.581 144.158 222.432 141.679 225.737C141.679 225.737 130.915 222.845 130.44 226.729C130.08 230.365 132.258 231.026 137.051 232.017C130.109 260.116 138.208 261.603 138.208 261.603V270.363C138.208 273.338 141.679 273.414 141.679 273.414H149.117C151.266 273.414 151.266 269.701 151.266 269.701V262.429H209.28V270.363C209.28 274.164 213.082 273.338 213.082 273.338H219.198C222.338 273.338 222.669 270.032 222.669 270.032V261.603C229.941 254.992 224.652 234.166 223.825 231.522C225.974 231.357 230.523 230.539 230.272 228.051Z" fill="#00BFCC"/>
<path fill-rule="evenodd" clip-rule="evenodd" d="M149.628 223.42C150.379 222.07 151.356 219.946 151.356 219.946C153.174 216.145 155.248 210.858 161.363 210.858H196.899C200.04 210.858 204.833 210.528 209.461 220.28C211.775 224.742 214.75 229.37 208.304 229.37H155.743C152.603 229.37 145.776 230.461 149.628 223.42Z" fill="#FDFFFE"/>
<path fill-rule="evenodd" clip-rule="evenodd" d="M151.468 255.103C149.071 255.103 144.196 253.946 141.716 252.623C139.237 251.301 140.064 246.342 140.312 245.723C140.559 245.103 142.047 244.029 143.369 244.689C144.692 245.351 147.689 246.063 150.89 246.756C154.652 247.57 155.352 249.565 155.766 251.788C156.179 254.01 153.865 255.103 151.468 255.103Z" fill="#FDFFFE"/>
<path fill-rule="evenodd" clip-rule="evenodd" d="M194.395 255.61C188.775 256.106 173.9 255.94 168.941 255.61C163.982 255.279 158.859 256.106 160.512 248.503C168.281 249.329 193.734 249.164 200.015 248.503C201.337 251.973 200.015 255.114 194.395 255.61Z" fill="#FDFFFE"/>
<path fill-rule="evenodd" clip-rule="evenodd" d="M219.749 252.623C217.27 253.945 212.394 255.102 209.997 255.102C207.601 255.102 205.287 254.01 205.7 251.788C206.114 249.565 206.814 247.569 210.576 246.755C213.777 246.063 216.774 245.35 218.096 244.689C219.419 244.028 220.906 245.102 221.154 245.722C221.402 246.342 222.229 251.301 219.749 252.623Z" fill="#FDFFFE"/>
<path d="M89.3887 273.414H241.694" stroke="#37334A" stroke-width="2" stroke-linecap="round" stroke-linejoin="round"/>
<path d="M244.967 273.414H246.809" stroke="#37334A" stroke-width="2" stroke-linecap="round" stroke-linejoin="round"/>
<path d="M250.537 273.415H273.332C293.761 273.415 298.913 272.201 298.913 265.905C298.913 259.898 293.904 259.608 273.012 259.608C258.99 259.608 252.407 259.18 252.407 253.026C252.407 245.617 264.9 246.34 276.597 246.548" stroke="#37334A" stroke-width="2" stroke-linecap="round" stroke-linejoin="round" stroke-dasharray="6.06 6.06"/>
<path d="M278.463 246.576C279.084 246.583 279.701 246.587 280.31 246.587" stroke="#37334A" stroke-width="2" stroke-linecap="round" stroke-linejoin="round"/>
<path fill-rule="evenodd" clip-rule="evenodd" d="M279.421 219.569C275.935 219.569 273.195 216.884 273.195 213.467C273.195 210.051 275.935 207.365 279.421 207.365C282.908 207.365 285.648 210.051 285.648 213.467C285.648 216.884 282.908 219.569 279.421 219.569ZM279.421 196.382C269.832 196.382 261.987 204.07 261.987 213.467C261.987 226.28 279.421 245.196 279.421 245.196C279.421 245.196 296.855 226.28 296.855 213.467C296.855 204.07 289.011 196.382 279.421 196.382Z" fill="white"/>
<path d="M279.421 245.196L278.686 245.874C278.875 246.079 279.142 246.196 279.421 246.196C279.701 246.196 279.967 246.079 280.157 245.874L279.421 245.196ZM279.421 218.569C276.468 218.569 274.195 216.313 274.195 213.467H272.195C272.195 217.455 275.402 220.569 279.421 220.569V218.569ZM274.195 213.467C274.195 210.622 276.468 208.365 279.421 208.365V206.365C275.402 206.365 272.195 209.479 272.195 213.467H274.195ZM279.421 208.365C282.375 208.365 284.648 210.622 284.648 213.467H286.648C286.648 209.479 283.441 206.365 279.421 206.365V208.365ZM284.648 213.467C284.648 216.313 282.375 218.569 279.421 218.569V220.569C283.441 220.569 286.648 217.455 286.648 213.467H284.648ZM279.421 195.382C269.299 195.382 260.987 203.498 260.987 213.467H262.987C262.987 204.641 270.365 197.382 279.421 197.382V195.382ZM260.987 213.467C260.987 216.876 262.141 220.613 263.802 224.246C265.469 227.892 267.682 231.51 269.881 234.704C272.081 237.9 274.28 240.689 275.927 242.678C276.751 243.673 277.439 244.47 277.921 245.019C278.162 245.293 278.352 245.506 278.483 245.65C278.548 245.722 278.598 245.778 278.632 245.815C278.649 245.834 278.663 245.848 278.672 245.858C278.676 245.863 278.68 245.867 278.682 245.869C278.683 245.871 278.684 245.872 278.685 245.873C278.685 245.873 278.685 245.873 278.686 245.873C278.686 245.874 278.686 245.874 279.421 245.196C280.157 244.518 280.157 244.519 280.157 244.519C280.157 244.518 280.157 244.518 280.156 244.518C280.156 244.518 280.155 244.517 280.154 244.516C280.153 244.514 280.15 244.511 280.146 244.507C280.138 244.498 280.126 244.485 280.11 244.468C280.079 244.433 280.031 244.381 279.968 244.311C279.843 244.172 279.659 243.966 279.423 243.698C278.952 243.162 278.278 242.381 277.467 241.403C275.846 239.445 273.686 236.704 271.528 233.569C269.368 230.432 267.223 226.919 265.621 223.414C264.013 219.897 262.987 216.464 262.987 213.467H260.987ZM279.421 245.196C280.157 245.874 280.157 245.874 280.157 245.873C280.157 245.873 280.158 245.873 280.158 245.873C280.159 245.872 280.16 245.871 280.161 245.869C280.163 245.867 280.167 245.863 280.171 245.858C280.18 245.848 280.193 245.834 280.21 245.815C280.245 245.778 280.295 245.722 280.36 245.65C280.49 245.506 280.68 245.293 280.922 245.019C281.404 244.47 282.091 243.673 282.916 242.678C284.563 240.689 286.762 237.9 288.962 234.704C291.161 231.51 293.374 227.892 295.041 224.246C296.702 220.613 297.855 216.876 297.855 213.467H295.855C295.855 216.464 294.83 219.897 293.222 223.414C291.62 226.919 289.475 230.432 287.315 233.569C285.157 236.704 282.997 239.445 281.375 241.403C280.565 242.381 279.89 243.162 279.419 243.698C279.184 243.966 278.999 244.172 278.874 244.311C278.812 244.381 278.764 244.433 278.732 244.468C278.717 244.485 278.705 244.498 278.697 244.507C278.693 244.511 278.69 244.514 278.688 244.516C278.687 244.517 278.687 244.518 278.686 244.518C278.686 244.518 278.686 244.518 278.686 244.519C278.686 244.519 278.686 244.518 279.421 245.196ZM297.855 213.467C297.855 203.498 289.544 195.382 279.421 195.382V197.382C288.477 197.382 295.855 204.641 295.855 213.467H297.855Z" fill="#37334A"/>
<path d="M279.421 245.196L278.686 245.874C278.875 246.079 279.142 246.196 279.421 246.196C279.701 246.196 279.967 246.079 280.157 245.874L279.421 245.196ZM279.421 218.569C276.468 218.569 274.195 216.313 274.195 213.467H272.195C272.195 217.455 275.402 220.569 279.421 220.569V218.569ZM274.195 213.467C274.195 210.622 276.468 208.365 279.421 208.365V206.365C275.402 206.365 272.195 209.479 272.195 213.467H274.195ZM279.421 208.365C282.375 208.365 284.648 210.622 284.648 213.467H286.648C286.648 209.479 283.441 206.365 279.421 206.365V208.365ZM284.648 213.467C284.648 216.313 282.375 218.569 279.421 218.569V220.569C283.441 220.569 286.648 217.455 286.648 213.467H284.648ZM279.421 195.382C269.299 195.382 260.987 203.498 260.987 213.467H262.987C262.987 204.641 270.365 197.382 279.421 197.382V195.382ZM260.987 213.467C260.987 216.876 262.141 220.613 263.802 224.246C265.469 227.892 267.682 231.51 269.881 234.704C272.081 237.9 274.28 240.689 275.927 242.678C276.751 243.673 277.439 244.47 277.921 245.019C278.162 245.293 278.352 245.506 278.483 245.65C278.548 245.722 278.598 245.778 278.632 245.815C278.649 245.834 278.663 245.848 278.672 245.858C278.676 245.863 278.68 245.867 278.682 245.869C278.683 245.871 278.684 245.872 278.685 245.873C278.685 245.873 278.685 245.873 278.686 245.873C278.686 245.874 278.686 245.874 279.421 245.196C280.157 244.518 280.157 244.519 280.157 244.519C280.157 244.518 280.157 244.518 280.156 244.518C280.156 244.518 280.155 244.517 280.154 244.516C280.153 244.514 280.15 244.511 280.146 244.507C280.138 244.498 280.126 244.485 280.11 244.468C280.079 244.433 280.031 244.381 279.968 244.311C279.843 244.172 279.659 243.966 279.423 243.698C278.952 243.162 278.278 242.381 277.467 241.403C275.846 239.445 273.686 236.704 271.528 233.569C269.368 230.432 267.223 226.919 265.621 223.414C264.013 219.897 262.987 216.464 262.987 213.467H260.987ZM279.421 245.196C280.157 245.874 280.157 245.874 280.157 245.873C280.157 245.873 280.158 245.873 280.158 245.873C280.159 245.872 280.16 245.871 280.161 245.869C280.163 245.867 280.167 245.863 280.171 245.858C280.18 245.848 280.193 245.834 280.21 245.815C280.245 245.778 280.295 245.722 280.36 245.65C280.49 245.506 280.68 245.293 280.922 245.019C281.404 244.47 282.091 243.673 282.916 242.678C284.563 240.689 286.762 237.9 288.962 234.704C291.161 231.51 293.374 227.892 295.041 224.246C296.702 220.613 297.855 216.876 297.855 213.467H295.855C295.855 216.464 294.83 219.897 293.222 223.414C291.62 226.919 289.475 230.432 287.315 233.569C285.157 236.704 282.997 239.445 281.375 241.403C280.565 242.381 279.89 243.162 279.419 243.698C279.184 243.966 278.999 244.172 278.874 244.311C278.812 244.381 278.764 244.433 278.732 244.468C278.717 244.485 278.705 244.498 278.697 244.507C278.693 244.511 278.69 244.514 278.688 244.516C278.687 244.517 278.687 244.518 278.686 244.518C278.686 244.518 278.686 244.518 278.686 244.519C278.686 244.519 278.686 244.518 279.421 245.196ZM297.855 213.467C297.855 203.498 289.544 195.382 279.421 195.382V197.382C288.477 197.382 295.855 204.641 295.855 213.467H297.855Z" fill="#37334A"/>
<path fill-rule="evenodd" clip-rule="evenodd" d="M134.559 211.6C134.559 214.325 133.44 216.794 131.633 218.56C129.873 220.29 127.465 221.352 124.807 221.352C122.153 221.352 119.741 220.29 117.985 218.56C116.174 216.794 115.055 214.325 115.055 211.6C115.055 211.204 115.08 210.815 115.126 210.435C115.702 205.6 119.818 201.848 124.807 201.848C129.801 201.848 133.917 205.6 134.487 210.44C134.533 210.82 134.559 211.204 134.559 211.6Z" stroke="#37334A" stroke-width="2" stroke-linecap="round" stroke-linejoin="round"/>
<path fill-rule="evenodd" clip-rule="evenodd" d="M134.487 210.44C131.803 211.841 128.446 212.672 124.807 212.672C121.167 212.672 117.81 211.841 115.126 210.435C115.701 205.6 119.817 201.848 124.807 201.848C129.801 201.848 133.917 205.6 134.487 210.44Z" stroke="#37334A" stroke-width="2" stroke-linecap="round" stroke-linejoin="round"/>
<path fill-rule="evenodd" clip-rule="evenodd" d="M131.633 218.56C129.873 220.289 127.465 221.352 124.807 221.352C122.153 221.352 119.741 220.289 117.985 218.56C118.472 215.228 121.342 212.673 124.807 212.673C128.271 212.673 131.14 215.228 131.633 218.56Z" stroke="#37334A" stroke-width="2" stroke-linecap="round" stroke-linejoin="round"/>
<path fill-rule="evenodd" clip-rule="evenodd" d="M230.531 227.535C230.1 223.222 222.926 224.881 219.122 225.215C216.524 219.47 214.117 215.262 211.907 212.184C205.263 202.898 200.48 203.836 198.122 203.836C194.976 203.836 170.67 203.669 160.744 203.836C150.82 203.996 144.374 221.895 141.893 225.215C141.893 225.215 131.118 222.315 130.644 226.208C130.288 229.854 132.467 230.515 137.263 231.507C130.317 259.686 138.42 261.179 138.42 261.179V269.959C138.42 272.945 141.893 273.019 141.893 273.019H149.336C151.485 273.019 151.485 269.298 151.485 269.298V262.006H209.53V269.959C209.53 273.772 213.335 272.945 213.335 272.945H219.455C222.595 272.945 222.926 269.632 222.926 269.632V261.179C230.204 254.547 224.909 233.667 224.084 231.014C226.234 230.848 230.783 230.027 230.531 227.535Z" fill="#5F0666"/>
<path opacity="0.1" fill-rule="evenodd" clip-rule="evenodd" d="M224.092 231.348C224.916 233.98 230.204 254.694 222.935 261.274V269.659C222.935 269.659 222.604 272.946 219.467 272.946H213.354C213.354 272.946 209.553 273.767 209.553 269.984V262.094H162.269L168.991 255.404L169.089 255.306L175.522 248.903L211.928 212.667C214.135 215.721 216.54 219.896 219.135 225.595C222.935 225.264 230.1 223.617 230.531 227.896C230.783 230.369 226.238 231.183 224.092 231.348Z" fill="#242E42"/>
<path fill-rule="evenodd" clip-rule="evenodd" d="M207.865 229.426H155.635C152.51 229.426 145.729 230.528 149.557 223.402C150.303 222.038 151.275 219.889 151.275 219.889C153.079 216.039 155.14 210.689 161.219 210.689H196.87C198.747 210.682 201.163 210.689 203.755 212.782C205.468 214.158 207.253 216.444 209.015 220.225C211.32 224.742 214.273 229.426 207.865 229.426Z" fill="#FDFFFE"/>
<path fill-rule="evenodd" clip-rule="evenodd" d="M193.931 210.688L175.132 229.487H162.269L181.069 210.688H193.931Z" fill="#EDEDED"/>
<path fill-rule="evenodd" clip-rule="evenodd" d="M204.815 212.788L188.187 229.487H179.089L197.808 210.689C199.718 210.682 202.177 210.689 204.815 212.788Z" fill="#EDEDED"/>
<path fill-rule="evenodd" clip-rule="evenodd" d="M150.998 255.212C148.602 255.212 143.728 254.027 141.249 252.671C138.77 251.316 139.596 246.235 139.844 245.6C140.091 244.965 141.579 243.864 142.901 244.541C144.223 245.219 147.22 245.949 150.42 246.658C154.182 247.493 154.881 249.537 155.295 251.815C155.708 254.093 153.395 255.212 150.998 255.212Z" fill="#FDFFFE"/>
<path fill-rule="evenodd" clip-rule="evenodd" d="M194.723 255.867C189.065 256.396 174.088 256.22 169.096 255.867C164.103 255.514 158.944 256.396 160.609 248.286C168.43 249.167 194.058 248.991 200.381 248.286C201.713 251.988 200.381 255.338 194.723 255.867Z" fill="#FDFFFE"/>
<path fill-rule="evenodd" clip-rule="evenodd" d="M219.899 252.671C217.42 254.027 212.545 255.212 210.149 255.212C207.753 255.212 205.439 254.093 205.853 251.816C206.266 249.538 206.966 247.493 210.727 246.658C213.928 245.949 216.924 245.219 218.246 244.541C219.568 243.864 221.055 244.965 221.303 245.6C221.551 246.235 222.377 251.316 219.899 252.671Z" fill="#FDFFFE"/>
</svg>
