<svg width="52" height="52" viewBox="0 0 52 52" fill="none" xmlns="http://www.w3.org/2000/svg">
<rect opacity="0.01" x="0.788086" y="0.916992" width="50.6912" height="50.6912" fill="white"/>
<path d="M26.1337 47.8062C27.5335 47.8062 28.6682 46.6714 28.6682 45.2716C28.6682 43.8718 27.5335 42.7371 26.1337 42.7371C24.7339 42.7371 23.5991 43.8718 23.5991 45.2716C23.5991 46.6714 24.7339 47.8062 26.1337 47.8062Z" fill="#3E4958"/>
<path fill-rule="evenodd" clip-rule="evenodd" d="M24.8796 28.7354H27.2367V43.7781H24.8796V28.7354Z" fill="#3E4958"/>
<path d="M26.1619 29.3855C33.7505 29.3855 39.9023 23.2337 39.9023 15.645C39.9023 8.05637 33.7505 1.90454 26.1619 1.90454C18.5732 1.90454 12.4214 8.05637 12.4214 15.645C12.4214 23.2337 18.5732 29.3855 26.1619 29.3855Z" fill="#5F0666"/>
<path fill-rule="evenodd" clip-rule="evenodd" d="M26.1616 2.55434C18.9319 2.55434 13.071 8.4152 13.071 15.6449C13.071 22.8746 18.9319 28.7356 26.1616 28.7356C33.3914 28.7356 39.2521 22.8746 39.2521 15.6449C39.2521 8.4152 33.3914 2.55434 26.1616 2.55434ZM11.7712 15.645C11.7712 7.69743 18.214 1.25464 26.1616 1.25464C34.1092 1.25464 40.552 7.69743 40.552 15.645C40.552 23.5927 34.1092 30.0354 26.1616 30.0354C18.214 30.0354 11.7712 23.5927 11.7712 15.645Z" fill="#5F0666"/>
<path d="M26.1622 24.58C28.4971 24.58 30.39 22.687 30.39 20.3521C30.39 18.0171 28.4971 16.1243 26.1622 16.1243C23.8272 16.1243 21.9343 18.0171 21.9343 20.3521C21.9343 22.687 23.8272 24.58 26.1622 24.58Z" fill="#F9FFFF"/>
</svg>
