<svg width="275" height="275" viewBox="0 0 275 275" fill="none" xmlns="http://www.w3.org/2000/svg">
<mask id="mask0_1_498" style="mask-type:luminance" maskUnits="userSpaceOnUse" x="0" y="0" width="275" height="275">
<path fill-rule="evenodd" clip-rule="evenodd" d="M0 0H275V275H0V0Z" fill="white"/>
</mask>
<g mask="url(#mask0_1_498)">
<path fill-rule="evenodd" clip-rule="evenodd" d="M137.5 0C61.5611 0 0 61.5611 0 137.5C0 213.439 61.5611 275 137.5 275C213.439 275 275 213.439 275 137.5C275 61.5611 213.439 0 137.5 0Z" fill="#EFF3F9"/>
</g>
<path fill-rule="evenodd" clip-rule="evenodd" d="M104.781 228.863C94.9045 228.863 86.8977 220.856 86.8977 210.98C86.8977 201.103 94.9045 193.097 104.781 193.097C114.658 193.097 122.664 201.103 122.664 210.98C122.664 220.856 114.658 228.863 104.781 228.863Z" fill="white"/>
<path fill-rule="evenodd" clip-rule="evenodd" d="M68.6171 191.85C65.7344 191.85 63.3977 189.513 63.3977 186.63C63.3977 183.747 65.7344 181.41 68.6171 181.41C71.5007 181.41 73.8374 183.747 73.8374 186.63C73.8374 189.513 71.5007 191.85 68.6171 191.85Z" fill="white"/>
<path fill-rule="evenodd" clip-rule="evenodd" d="M154.226 217.936C152.305 217.936 150.748 216.379 150.748 214.458C150.748 212.537 152.305 210.979 154.226 210.979C156.147 210.979 157.704 212.537 157.704 214.458C157.704 216.379 156.147 217.936 154.226 217.936Z" fill="white"/>
<path fill-rule="evenodd" clip-rule="evenodd" d="M202.361 53.707C200.44 53.707 198.883 52.15 198.883 50.229C198.883 48.308 200.44 46.751 202.361 46.751C204.282 46.751 205.839 48.308 205.839 50.229C205.839 52.15 204.282 53.707 202.361 53.707Z" fill="white"/>
<path fill-rule="evenodd" clip-rule="evenodd" d="M186.784 85.3081H194.572V84.6301C194.572 82.3419 192.717 80.4868 190.428 80.4868H168.075C165.786 80.4868 163.931 82.3419 163.931 84.6301V150.706H181.304V90.7882C181.304 87.7616 183.758 85.3081 186.784 85.3081Z" fill="#E0E8F6"/>
<mask id="mask1_1_498" style="mask-type:luminance" maskUnits="userSpaceOnUse" x="0" y="0" width="275" height="275">
<path fill-rule="evenodd" clip-rule="evenodd" d="M0 275H275V0H0V275Z" fill="white"/>
</mask>
<g mask="url(#mask1_1_498)">
<path fill-rule="evenodd" clip-rule="evenodd" d="M140.413 150.706H159.412V93.5405H140.413V150.706Z" fill="#D0DBF0"/>
<path fill-rule="evenodd" clip-rule="evenodd" d="M187.596 77.3441H170.908C170.27 77.3441 169.753 76.8274 169.753 76.1892V69.4175C169.753 68.7801 170.27 68.2627 170.908 68.2627H187.596C188.235 68.2627 188.751 68.7801 188.751 69.4175V76.1892C188.751 76.8274 188.235 77.3441 187.596 77.3441Z" fill="#E0E8F6"/>
<path fill-rule="evenodd" clip-rule="evenodd" d="M136.297 150.706H97.6191V53.3832C97.6191 51.2475 99.626 49.6802 101.699 50.1968L133.808 58.2068C135.271 58.5716 136.297 59.8854 136.297 61.3931V150.706Z" fill="#D0DBF0"/>
<path fill-rule="evenodd" clip-rule="evenodd" d="M80.4731 150.706V117.066C80.4731 114.05 82.9179 111.604 85.935 111.604H92.1312V150.706H80.4731Z" fill="#E0E8F6"/>
<path fill-rule="evenodd" clip-rule="evenodd" d="M177.88 144.304C177.079 144.304 176.43 143.654 176.43 142.853V91.7899C176.43 90.9879 177.079 90.3394 177.88 90.3394C178.681 90.3394 179.331 90.9879 179.331 91.7899V142.853C179.331 143.654 178.681 144.304 177.88 144.304Z" fill="#C0CBE2"/>
<path fill-rule="evenodd" clip-rule="evenodd" d="M169.831 144.304C169.03 144.304 168.381 143.654 168.381 142.853V91.7899C168.381 90.9879 169.03 90.3394 169.831 90.3394C170.633 90.3394 171.282 90.9879 171.282 91.7899V142.853C171.282 143.654 170.633 144.304 169.831 144.304Z" fill="#C0CBE2"/>
<path fill-rule="evenodd" clip-rule="evenodd" d="M128.962 72.8039H106.063C104.809 72.8039 103.793 71.7873 103.793 70.5339C103.793 69.2797 104.809 68.2632 106.063 68.2632H128.962C130.217 68.2632 131.232 69.2797 131.232 70.5339C131.232 71.7873 130.217 72.8039 128.962 72.8039Z" fill="#C1CAE7"/>
<path fill-rule="evenodd" clip-rule="evenodd" d="M128.962 82.757H106.063C104.809 82.757 103.793 81.7404 103.793 80.487C103.793 79.2329 104.809 78.2163 106.063 78.2163H128.962C130.217 78.2163 131.232 79.2329 131.232 80.487C131.232 81.7404 130.217 82.757 128.962 82.757Z" fill="#C1CAE7"/>
<path fill-rule="evenodd" clip-rule="evenodd" d="M128.962 92.7106H106.063C104.809 92.7106 103.793 91.6941 103.793 90.4399C103.793 89.1865 104.809 88.1699 106.063 88.1699H128.962C130.217 88.1699 131.232 89.1865 131.232 90.4399C131.232 91.6941 130.217 92.7106 128.962 92.7106Z" fill="#C1CAE7"/>
<path fill-rule="evenodd" clip-rule="evenodd" d="M128.962 102.664H106.063C104.809 102.664 103.793 101.647 103.793 100.394C103.793 99.1396 104.809 98.123 106.063 98.123H128.962C130.217 98.123 131.232 99.1396 131.232 100.394C131.232 101.647 130.217 102.664 128.962 102.664Z" fill="#C1CAE7"/>
<path fill-rule="evenodd" clip-rule="evenodd" d="M128.962 112.617H106.063C104.809 112.617 103.793 111.6 103.793 110.347C103.793 109.093 104.809 108.076 106.063 108.076H128.962C130.217 108.076 131.232 109.093 131.232 110.347C131.232 111.6 130.217 112.617 128.962 112.617Z" fill="#C1CAE7"/>
<path fill-rule="evenodd" clip-rule="evenodd" d="M128.962 122.57H106.063C104.809 122.57 103.793 121.554 103.793 120.3C103.793 119.046 104.809 118.03 106.063 118.03H128.962C130.217 118.03 131.232 119.046 131.232 120.3C131.232 121.554 130.217 122.57 128.962 122.57Z" fill="#C1CAE7"/>
<path fill-rule="evenodd" clip-rule="evenodd" d="M128.962 132.524H106.063C104.809 132.524 103.793 131.507 103.793 130.254C103.793 128.999 104.809 127.983 106.063 127.983H128.962C130.217 127.983 131.232 128.999 131.232 130.254C131.232 131.507 130.217 132.524 128.962 132.524Z" fill="#C1CAE7"/>
<path fill-rule="evenodd" clip-rule="evenodd" d="M128.962 142.477H106.063C104.809 142.477 103.793 141.461 103.793 140.207C103.793 138.952 104.809 137.937 106.063 137.937H128.962C130.217 137.937 131.232 138.952 131.232 140.207C131.232 141.461 130.217 142.477 128.962 142.477Z" fill="#C1CAE7"/>
<path fill-rule="evenodd" clip-rule="evenodd" d="M71.5512 150.706H40.9102V90.2613C40.9102 87.5256 43.1276 85.3081 45.8633 85.3081H66.5988C69.3337 85.3081 71.5512 87.5256 71.5512 90.2613V150.706Z" fill="#E0E8F6"/>
<path fill-rule="evenodd" clip-rule="evenodd" d="M65.7502 98.3403H46.7124C45.6457 98.3403 44.781 97.4764 44.781 96.4098V96.3366C44.781 95.27 45.6457 94.4053 46.7124 94.4053H65.7502C66.816 94.4053 67.6807 95.27 67.6807 96.3366V96.4098C67.6807 97.4764 66.816 98.3403 65.7502 98.3403Z" fill="#C1CAE7"/>
<path fill-rule="evenodd" clip-rule="evenodd" d="M65.7502 106.966H46.7124C45.6457 106.966 44.781 106.102 44.781 105.035V104.962C44.781 103.896 45.6457 103.031 46.7124 103.031H65.7502C66.816 103.031 67.6807 103.896 67.6807 104.962V105.035C67.6807 106.102 66.816 106.966 65.7502 106.966Z" fill="#C1CAE7"/>
<path fill-rule="evenodd" clip-rule="evenodd" d="M65.7502 115.591H46.7124C45.6457 115.591 44.781 114.727 44.781 113.66V113.587C44.781 112.521 45.6457 111.656 46.7124 111.656H65.7502C66.816 111.656 67.6807 112.521 67.6807 113.587V113.66C67.6807 114.727 66.816 115.591 65.7502 115.591Z" fill="#C1CAE7"/>
<path fill-rule="evenodd" clip-rule="evenodd" d="M65.7502 124.216H46.7124C45.6457 124.216 44.781 123.352 44.781 122.285V122.212C44.781 121.146 45.6457 120.281 46.7124 120.281H65.7502C66.816 120.281 67.6807 121.146 67.6807 122.212V122.285C67.6807 123.352 66.816 124.216 65.7502 124.216Z" fill="#C1CAE7"/>
<path fill-rule="evenodd" clip-rule="evenodd" d="M65.7502 132.841H46.7124C45.6457 132.841 44.781 131.977 44.781 130.911V130.838C44.781 129.771 45.6457 128.906 46.7124 128.906H65.7502C66.816 128.906 67.6807 129.771 67.6807 130.838V130.911C67.6807 131.977 66.816 132.841 65.7502 132.841Z" fill="#C1CAE7"/>
<path fill-rule="evenodd" clip-rule="evenodd" d="M65.7502 141.466H46.7124C45.6457 141.466 44.781 140.602 44.781 139.535V139.462C44.781 138.396 45.6457 137.532 46.7124 137.532H65.7502C66.816 137.532 67.6807 138.396 67.6807 139.462V139.535C67.6807 140.602 66.816 141.466 65.7502 141.466Z" fill="#C1CAE7"/>
<path fill-rule="evenodd" clip-rule="evenodd" d="M220.663 153.45H183.157V93.5321C183.157 90.5055 185.61 88.0527 188.637 88.0527H215.183C218.209 88.0527 220.663 90.5055 220.663 93.5321V153.45Z" fill="#E0E8F6"/>
<path fill-rule="evenodd" clip-rule="evenodd" d="M213.957 101.084H189.862C188.776 101.084 187.895 100.204 187.895 99.1165C187.895 98.0308 188.776 97.1494 189.862 97.1494H213.957C215.044 97.1494 215.925 98.0308 215.925 99.1165C215.925 100.204 215.044 101.084 213.957 101.084Z" fill="#C1CAE7"/>
<path fill-rule="evenodd" clip-rule="evenodd" d="M213.957 109.71H189.862C188.776 109.71 187.895 108.829 187.895 107.742C187.895 106.656 188.776 105.775 189.862 105.775H213.957C215.044 105.775 215.925 106.656 215.925 107.742C215.925 108.829 215.044 109.71 213.957 109.71Z" fill="#C1CAE7"/>
<path fill-rule="evenodd" clip-rule="evenodd" d="M213.957 118.335H189.862C188.776 118.335 187.895 117.454 187.895 116.367C187.895 115.281 188.776 114.4 189.862 114.4H213.957C215.044 114.4 215.925 115.281 215.925 116.367C215.925 117.454 215.044 118.335 213.957 118.335Z" fill="#C1CAE7"/>
<path fill-rule="evenodd" clip-rule="evenodd" d="M89.7927 88.1697C86.7907 88.1697 84.3563 85.736 84.3563 82.734V72.7681H64.2344V81.859H69.4991C72.6378 81.859 75.1819 84.4031 75.1819 87.5418V150.707H78.1831V115.007C78.1831 111.675 80.883 108.975 84.214 108.975H92.131V88.1697H89.7927Z" fill="#D0DBF0"/>
<path fill-rule="evenodd" clip-rule="evenodd" d="M184.695 62.3765H173.808C173.171 62.3765 172.654 61.8598 172.654 61.2216V55.8599C172.654 55.2217 173.171 54.7051 173.808 54.7051H184.695C185.333 54.7051 185.85 55.2217 185.85 55.8599V61.2216C185.85 61.8598 185.333 62.3765 184.695 62.3765Z" fill="#E0E8F6"/>
<path fill-rule="evenodd" clip-rule="evenodd" d="M181.305 52.5441H177.2V41.8755C177.2 41.4408 177.552 41.0879 177.987 41.0879H180.518C180.953 41.0879 181.305 41.4408 181.305 41.8755V52.5441Z" fill="#E0E8F6"/>
<path fill-rule="evenodd" clip-rule="evenodd" d="M191.486 160.767H70.7672C69.0631 160.767 67.6802 159.386 67.6802 157.68C67.6802 155.976 69.0631 154.593 70.7672 154.593H191.486C193.191 154.593 194.573 155.976 194.573 157.68C194.573 159.386 193.191 160.767 191.486 160.767Z" fill="#7E89A0"/>
<path fill-rule="evenodd" clip-rule="evenodd" d="M264.963 166.255C264.963 158.057 258.317 151.409 250.118 151.409H238.811H231.159H36.4607C34.1192 151.409 32.2213 149.512 32.2213 147.171C32.2213 144.829 34.1192 142.931 36.4607 142.931H37.7093V136.565H29.6882C21.4891 136.565 14.843 143.211 14.843 151.409C14.843 159.609 21.4891 166.255 29.6882 166.255H235.273H245.879C248.221 166.255 250.118 168.153 250.118 170.494C250.118 172.836 248.221 174.734 245.879 174.734H237.942H217.074C215.315 174.734 213.89 176.159 213.89 177.917C213.89 179.676 215.315 181.101 217.074 181.101H250.294V181.092C258.411 180.997 264.963 174.395 264.963 166.255Z" fill="#919DB6"/>
<path fill-rule="evenodd" clip-rule="evenodd" d="M201.601 174.733H181.063C179.305 174.733 177.88 176.159 177.88 177.917C177.88 179.675 179.305 181.101 181.063 181.101H201.601C203.359 181.101 204.784 179.675 204.784 177.917C204.784 176.159 203.359 174.733 201.601 174.733Z" fill="#919DB6"/>
<path fill-rule="evenodd" clip-rule="evenodd" d="M105.779 205.715H162.21L172.939 229.559H95.4465L105.779 205.715Z" fill="#DCE3ED"/>
<path fill-rule="evenodd" clip-rule="evenodd" d="M95.4465 232.738H172.939V229.559H95.4465V232.738Z" fill="#B3C5D0"/>
<path fill-rule="evenodd" clip-rule="evenodd" d="M151.542 221.015H127.698C125.832 221.015 124.321 219.503 124.321 217.637C124.321 215.772 125.832 214.259 127.698 214.259H151.542C153.408 214.259 154.92 215.772 154.92 217.637C154.92 219.503 153.408 221.015 151.542 221.015Z" fill="#B3C5D0"/>
<path fill-rule="evenodd" clip-rule="evenodd" d="M137.649 151.036C114.636 151.036 96.5483 133.31 96.5483 110.758C96.5483 88.2053 114.636 70.4805 137.649 70.4805C160.662 70.4805 178.749 88.2053 178.749 110.758C178.749 133.31 160.661 151.036 137.649 151.036Z" fill="white"/>
<path fill-rule="evenodd" clip-rule="evenodd" d="M137.649 142.669C119.416 142.669 105.086 128.625 105.086 110.758C105.086 92.8903 119.416 78.847 137.649 78.847C155.882 78.847 170.212 92.8903 170.212 110.758C170.212 128.625 155.881 142.669 137.649 142.669ZM137.649 51.8604C104.593 51.8604 77.5496 78.3629 77.5496 110.758C77.5496 154.931 137.649 220.14 137.649 220.14C137.649 220.14 197.748 154.931 197.748 110.758C197.748 78.3629 170.705 51.8604 137.649 51.8604Z" fill="#5F0666"/>
</g>
<mask id="mask2_1_498" style="mask-type:luminance" maskUnits="userSpaceOnUse" x="77" y="51" width="61" height="170">
<path fill-rule="evenodd" clip-rule="evenodd" d="M77.5496 51.9121H137.649V220.192H77.5496V51.9121Z" fill="white"/>
</mask>
<g mask="url(#mask2_1_498)">
<path fill-rule="evenodd" clip-rule="evenodd" d="M137.649 142.721C119.416 142.721 105.086 128.678 105.086 110.811C105.086 92.9419 119.416 78.8994 137.649 78.8994C155.882 78.8994 170.212 92.9419 170.212 110.811C170.212 128.678 155.881 142.721 137.649 142.721ZM137.649 51.9121C104.593 51.9121 77.5496 78.4154 77.5496 110.811C77.5496 154.984 137.649 220.192 137.649 220.192C137.649 220.192 197.748 154.984 197.748 110.811C197.748 78.4154 170.705 51.9121 137.649 51.9121Z" fill="#5F0666"/>
</g>
<path fill-rule="evenodd" clip-rule="evenodd" d="M139.52 95.9322V98.6345H142.015V97.1792C142.015 96.1468 141.177 95.3091 140.144 95.3091C139.8 95.3091 139.52 95.5881 139.52 95.9322Z" fill="#E9E3D5"/>
<path fill-rule="evenodd" clip-rule="evenodd" d="M157.846 115.423C157.549 115.129 157.396 114.718 157.396 114.299V110.274C157.396 108.655 156.87 107.08 155.899 105.785L151.409 99.7982C150.467 98.5424 148.988 97.8032 147.418 97.8032H135.318C133.544 97.8032 131.903 98.7451 131.009 100.278L126.633 107.78L121.392 108.409C121.232 108.428 121.073 108.454 120.916 108.488L116.989 113.32V117.757C116.989 119.135 118.104 120.252 119.482 120.252H155.815C157.193 120.252 158.31 119.135 158.31 117.757V116.533C158.31 116.116 158.143 115.716 157.846 115.423Z" fill="#FFB545"/>
<path fill-rule="evenodd" clip-rule="evenodd" d="M157.847 115.424C157.549 115.13 157.396 114.719 157.396 114.299V112.769V110.274C157.396 108.721 156.902 107.122 155.899 105.785L151.409 99.7982C150.895 99.1131 150.221 98.583 149.459 98.2412C148.766 99.1083 148.717 100.366 149.414 101.295L152.313 105.161L149.75 107.78H152.391C153.761 107.78 154.893 108.879 154.901 110.248V110.274V114.299V114.317C154.903 114.771 154.39 115.042 154.028 114.769C152.882 113.905 151.456 113.392 149.913 113.392C147.01 113.392 144.524 115.205 143.524 117.757H142.014V100.297H139.519V117.757H129.561C128.597 115.557 126.4 114.016 123.848 114.016C121.296 114.016 119.1 115.557 118.136 117.757H116.989C116.989 119.135 118.104 120.252 119.482 120.252H155.815C157.193 120.252 158.31 119.135 158.31 117.757V116.581C158.31 116.15 158.154 115.726 157.847 115.424Z" fill="#FF7E40"/>
<path fill-rule="evenodd" clip-rule="evenodd" d="M134.49 110.898H136.984C137.329 110.898 137.608 110.619 137.608 110.274C137.608 109.93 137.329 109.651 136.984 109.651H134.49C134.145 109.651 133.866 109.93 133.866 110.274C133.866 110.619 134.145 110.898 134.49 110.898Z" fill="#35404A"/>
<path fill-rule="evenodd" clip-rule="evenodd" d="M144.467 110.898H146.961C147.306 110.898 147.585 110.619 147.585 110.274C147.585 109.93 147.306 109.651 146.961 109.651H144.467C144.122 109.651 143.844 109.93 143.844 110.274C143.844 110.619 144.122 110.898 144.467 110.898Z" fill="#35404A"/>
<path fill-rule="evenodd" clip-rule="evenodd" d="M133.164 101.535L129.52 107.78H139.52V100.297H135.318C134.434 100.297 133.609 100.772 133.164 101.535Z" fill="#87F8F4"/>
<path fill-rule="evenodd" clip-rule="evenodd" d="M152.032 104.788L149.413 101.295C148.942 100.667 148.204 100.298 147.418 100.298H142.014V107.781H150.536C151.569 107.781 152.407 106.943 152.407 105.91C152.407 105.505 152.276 105.111 152.032 104.788Z" fill="#87F8F4"/>
<path fill-rule="evenodd" clip-rule="evenodd" d="M155.317 110.275C154.628 110.275 154.07 110.834 154.07 111.522C154.07 112.211 154.628 112.769 155.317 112.769H157.396V110.275H155.317Z" fill="#C5324F"/>
<path fill-rule="evenodd" clip-rule="evenodd" d="M117.671 110.802C117.667 110.808 117.663 110.816 117.659 110.823C117.616 110.898 117.573 110.975 117.534 111.052C117.184 111.738 116.989 112.511 116.989 113.32H118.422C119.8 113.32 120.916 112.204 120.916 110.826V108.488C119.564 108.781 118.375 109.61 117.671 110.802Z" fill="#E9E3D5"/>
<path fill-rule="evenodd" clip-rule="evenodd" d="M123.847 124.617C121.441 124.617 119.482 122.66 119.482 120.252C119.482 117.845 121.441 115.887 123.847 115.887C126.254 115.887 128.212 117.845 128.212 120.252C128.212 122.66 126.254 124.617 123.847 124.617Z" fill="#596775"/>
<path fill-rule="evenodd" clip-rule="evenodd" d="M124.74 115.979C124.228 116.924 124.371 118.131 125.17 118.929L122.525 121.575C121.725 120.776 120.52 120.633 119.575 121.144C119.988 123.124 121.746 124.617 123.847 124.617C126.254 124.617 128.212 122.658 128.212 120.252C128.212 118.15 126.72 116.392 124.74 115.979Z" fill="#35404A"/>
<path fill-rule="evenodd" clip-rule="evenodd" d="M125.718 120.252C125.718 121.286 124.88 122.123 123.847 122.123C122.815 122.123 121.977 121.286 121.977 120.252C121.977 119.219 122.815 118.381 123.847 118.381C124.88 118.381 125.718 119.219 125.718 120.252Z" fill="#E9E3D5"/>
<path fill-rule="evenodd" clip-rule="evenodd" d="M149.913 124.617C147.506 124.617 145.548 122.66 145.548 120.252C145.548 117.845 147.506 115.887 149.913 115.887C152.319 115.887 154.278 117.845 154.278 120.252C154.278 122.66 152.319 124.617 149.913 124.617Z" fill="#596775"/>
<path fill-rule="evenodd" clip-rule="evenodd" d="M150.805 115.979C150.293 116.924 150.436 118.131 151.235 118.929L148.59 121.575C147.791 120.776 146.585 120.633 145.64 121.144C146.053 123.124 147.811 124.617 149.913 124.617C152.319 124.617 154.278 122.658 154.278 120.252C154.278 118.15 152.785 116.392 150.805 115.979Z" fill="#35404A"/>
<path fill-rule="evenodd" clip-rule="evenodd" d="M151.783 120.252C151.783 121.286 150.946 122.123 149.913 122.123C148.88 122.123 148.042 121.286 148.042 120.252C148.042 119.219 148.88 118.381 149.913 118.381C150.946 118.381 151.783 119.219 151.783 120.252Z" fill="#E9E3D5"/>
</svg>
