<svg width="275" height="275" viewBox="0 0 275 275" fill="none" xmlns="http://www.w3.org/2000/svg">
<rect width="275" height="275" rx="137.5" fill="black"/>
<mask id="mask0_1_200" style="mask-type:luminance" maskUnits="userSpaceOnUse" x="0" y="0" width="275" height="275">
<path fill-rule="evenodd" clip-rule="evenodd" d="M0 0H275V275H0V0Z" fill="white"/>
</mask>
<g mask="url(#mask0_1_200)">
<path fill-rule="evenodd" clip-rule="evenodd" d="M137.5 0C61.5611 0 0 61.5611 0 137.5C0 213.439 61.5611 275 137.5 275C213.439 275 275 213.439 275 137.5C275 61.5611 213.439 0 137.5 0Z" fill="#EFF3F9"/>
</g>
<path fill-rule="evenodd" clip-rule="evenodd" d="M104.781 228.863C94.9039 228.863 86.8979 220.856 86.8979 210.98C86.8979 201.103 94.9039 193.097 104.781 193.097C114.657 193.097 122.664 201.103 122.664 210.98C122.664 220.856 114.657 228.863 104.781 228.863Z" fill="white"/>
<path fill-rule="evenodd" clip-rule="evenodd" d="M68.6177 191.85C65.735 191.85 63.3975 189.513 63.3975 186.63C63.3975 183.747 65.735 181.41 68.6177 181.41C71.5004 181.41 73.8379 183.747 73.8379 186.63C73.8379 189.513 71.5004 191.85 68.6177 191.85Z" fill="white"/>
<path fill-rule="evenodd" clip-rule="evenodd" d="M154.226 217.936C152.305 217.936 150.748 216.379 150.748 214.458C150.748 212.537 152.305 210.979 154.226 210.979C156.147 210.979 157.704 212.537 157.704 214.458C157.704 216.379 156.147 217.936 154.226 217.936Z" fill="white"/>
<path fill-rule="evenodd" clip-rule="evenodd" d="M202.361 53.707C200.44 53.707 198.883 52.15 198.883 50.229C198.883 48.308 200.44 46.751 202.361 46.751C204.282 46.751 205.839 48.308 205.839 50.229C205.839 52.15 204.282 53.707 202.361 53.707Z" fill="white"/>
<path fill-rule="evenodd" clip-rule="evenodd" d="M186.784 85.3085H194.572V84.6306C194.572 82.3424 192.717 80.4873 190.428 80.4873H168.074C165.786 80.4873 163.931 82.3424 163.931 84.6306V150.707H181.304V90.7887C181.304 87.7621 183.757 85.3085 186.784 85.3085Z" fill="#E0E8F6"/>
<mask id="mask1_1_200" style="mask-type:luminance" maskUnits="userSpaceOnUse" x="0" y="0" width="275" height="275">
<path fill-rule="evenodd" clip-rule="evenodd" d="M0 275H275V0H0V275Z" fill="white"/>
</mask>
<g mask="url(#mask1_1_200)">
<path fill-rule="evenodd" clip-rule="evenodd" d="M140.413 150.706H159.412V93.5405H140.413V150.706Z" fill="#D0DBF0"/>
<path fill-rule="evenodd" clip-rule="evenodd" d="M187.596 77.3441H170.908C170.27 77.3441 169.753 76.8274 169.753 76.1892V69.4175C169.753 68.7801 170.27 68.2627 170.908 68.2627H187.596C188.234 68.2627 188.751 68.7801 188.751 69.4175V76.1892C188.751 76.8274 188.234 77.3441 187.596 77.3441Z" fill="#E0E8F6"/>
<path fill-rule="evenodd" clip-rule="evenodd" d="M136.297 150.706H97.6191V53.3832C97.6191 51.2475 99.6252 49.6802 101.698 50.1968L133.808 58.2068C135.27 58.5716 136.297 59.8854 136.297 61.3931V150.706Z" fill="#D0DBF0"/>
<path fill-rule="evenodd" clip-rule="evenodd" d="M80.4722 150.706V117.066C80.4722 114.05 82.9178 111.604 85.9348 111.604H92.1303V150.706H80.4722Z" fill="#E0E8F6"/>
<path fill-rule="evenodd" clip-rule="evenodd" d="M177.88 144.304C177.079 144.304 176.429 143.654 176.429 142.853V91.7899C176.429 90.9879 177.079 90.3394 177.88 90.3394C178.681 90.3394 179.33 90.9879 179.33 91.7899V142.853C179.33 143.654 178.681 144.304 177.88 144.304Z" fill="#C0CBE2"/>
<path fill-rule="evenodd" clip-rule="evenodd" d="M169.831 144.304C169.03 144.304 168.381 143.654 168.381 142.853V91.7899C168.381 90.9879 169.03 90.3394 169.831 90.3394C170.633 90.3394 171.282 90.9879 171.282 91.7899V142.853C171.282 143.654 170.633 144.304 169.831 144.304Z" fill="#C0CBE2"/>
<path fill-rule="evenodd" clip-rule="evenodd" d="M128.962 72.8039H106.062C104.809 72.8039 103.792 71.7873 103.792 70.5339C103.792 69.2797 104.809 68.2632 106.062 68.2632H128.962C130.216 68.2632 131.232 69.2797 131.232 70.5339C131.232 71.7873 130.216 72.8039 128.962 72.8039Z" fill="#C1CAE7"/>
<path fill-rule="evenodd" clip-rule="evenodd" d="M128.962 82.757H106.062C104.809 82.757 103.792 81.7404 103.792 80.487C103.792 79.2329 104.809 78.2163 106.062 78.2163H128.962C130.216 78.2163 131.232 79.2329 131.232 80.487C131.232 81.7404 130.216 82.757 128.962 82.757Z" fill="#C1CAE7"/>
<path fill-rule="evenodd" clip-rule="evenodd" d="M128.962 92.7106H106.062C104.809 92.7106 103.792 91.6941 103.792 90.4399C103.792 89.1865 104.809 88.1699 106.062 88.1699H128.962C130.216 88.1699 131.232 89.1865 131.232 90.4399C131.232 91.6941 130.216 92.7106 128.962 92.7106Z" fill="#C1CAE7"/>
<path fill-rule="evenodd" clip-rule="evenodd" d="M128.962 102.664H106.062C104.809 102.664 103.792 101.647 103.792 100.394C103.792 99.1396 104.809 98.123 106.062 98.123H128.962C130.216 98.123 131.232 99.1396 131.232 100.394C131.232 101.647 130.216 102.664 128.962 102.664Z" fill="#C1CAE7"/>
<path fill-rule="evenodd" clip-rule="evenodd" d="M128.962 112.617H106.062C104.809 112.617 103.792 111.6 103.792 110.347C103.792 109.093 104.809 108.076 106.062 108.076H128.962C130.216 108.076 131.232 109.093 131.232 110.347C131.232 111.6 130.216 112.617 128.962 112.617Z" fill="#C1CAE7"/>
<path fill-rule="evenodd" clip-rule="evenodd" d="M128.962 122.57H106.062C104.809 122.57 103.792 121.554 103.792 120.3C103.792 119.046 104.809 118.03 106.062 118.03H128.962C130.216 118.03 131.232 119.046 131.232 120.3C131.232 121.554 130.216 122.57 128.962 122.57Z" fill="#C1CAE7"/>
<path fill-rule="evenodd" clip-rule="evenodd" d="M128.962 132.524H106.062C104.809 132.524 103.792 131.507 103.792 130.254C103.792 128.999 104.809 127.983 106.062 127.983H128.962C130.216 127.983 131.232 128.999 131.232 130.254C131.232 131.507 130.216 132.524 128.962 132.524Z" fill="#C1CAE7"/>
<path fill-rule="evenodd" clip-rule="evenodd" d="M128.962 142.477H106.062C104.809 142.477 103.792 141.461 103.792 140.207C103.792 138.952 104.809 137.937 106.062 137.937H128.962C130.216 137.937 131.232 138.952 131.232 140.207C131.232 141.461 130.216 142.477 128.962 142.477Z" fill="#C1CAE7"/>
<path fill-rule="evenodd" clip-rule="evenodd" d="M71.5517 150.706H40.9106V90.2613C40.9106 87.5256 43.1281 85.3081 45.8638 85.3081H66.5985C69.3342 85.3081 71.5517 87.5256 71.5517 90.2613V150.706Z" fill="#E0E8F6"/>
<path fill-rule="evenodd" clip-rule="evenodd" d="M65.7496 98.3403H46.7118C45.646 98.3403 44.7812 97.4764 44.7812 96.4098V96.3366C44.7812 95.27 45.646 94.4053 46.7118 94.4053H65.7496C66.8162 94.4053 67.6802 95.27 67.6802 96.3366V96.4098C67.6802 97.4764 66.8162 98.3403 65.7496 98.3403Z" fill="#C1CAE7"/>
<path fill-rule="evenodd" clip-rule="evenodd" d="M65.7496 106.966H46.7118C45.646 106.966 44.7812 106.102 44.7812 105.035V104.962C44.7812 103.896 45.646 103.031 46.7118 103.031H65.7496C66.8162 103.031 67.6802 103.896 67.6802 104.962V105.035C67.6802 106.102 66.8162 106.966 65.7496 106.966Z" fill="#C1CAE7"/>
<path fill-rule="evenodd" clip-rule="evenodd" d="M65.7496 115.591H46.7118C45.646 115.591 44.7812 114.727 44.7812 113.66V113.587C44.7812 112.521 45.646 111.656 46.7118 111.656H65.7496C66.8162 111.656 67.6802 112.521 67.6802 113.587V113.66C67.6802 114.727 66.8162 115.591 65.7496 115.591Z" fill="#C1CAE7"/>
<path fill-rule="evenodd" clip-rule="evenodd" d="M65.7496 124.216H46.7118C45.646 124.216 44.7812 123.352 44.7812 122.285V122.212C44.7812 121.146 45.646 120.281 46.7118 120.281H65.7496C66.8162 120.281 67.6802 121.146 67.6802 122.212V122.285C67.6802 123.352 66.8162 124.216 65.7496 124.216Z" fill="#C1CAE7"/>
<path fill-rule="evenodd" clip-rule="evenodd" d="M65.7496 132.841H46.7118C45.646 132.841 44.7812 131.977 44.7812 130.911V130.838C44.7812 129.771 45.646 128.906 46.7118 128.906H65.7496C66.8162 128.906 67.6802 129.771 67.6802 130.838V130.911C67.6802 131.977 66.8162 132.841 65.7496 132.841Z" fill="#C1CAE7"/>
<path fill-rule="evenodd" clip-rule="evenodd" d="M65.7496 141.466H46.7118C45.646 141.466 44.7812 140.602 44.7812 139.535V139.462C44.7812 138.396 45.646 137.532 46.7118 137.532H65.7496C66.8162 137.532 67.6802 138.396 67.6802 139.462V139.535C67.6802 140.602 66.8162 141.466 65.7496 141.466Z" fill="#C1CAE7"/>
<path fill-rule="evenodd" clip-rule="evenodd" d="M220.662 153.45H183.157V93.5321C183.157 90.5055 185.609 88.0527 188.636 88.0527H215.182C218.209 88.0527 220.662 90.5055 220.662 93.5321V153.45Z" fill="#E0E8F6"/>
<path fill-rule="evenodd" clip-rule="evenodd" d="M213.957 101.084H189.862C188.775 101.084 187.895 100.204 187.895 99.1165C187.895 98.0308 188.775 97.1494 189.862 97.1494H213.957C215.043 97.1494 215.925 98.0308 215.925 99.1165C215.925 100.204 215.043 101.084 213.957 101.084Z" fill="#C1CAE7"/>
<path fill-rule="evenodd" clip-rule="evenodd" d="M213.957 109.71H189.862C188.775 109.71 187.895 108.829 187.895 107.742C187.895 106.656 188.775 105.775 189.862 105.775H213.957C215.043 105.775 215.925 106.656 215.925 107.742C215.925 108.829 215.043 109.71 213.957 109.71Z" fill="#C1CAE7"/>
<path fill-rule="evenodd" clip-rule="evenodd" d="M213.957 118.335H189.862C188.775 118.335 187.895 117.454 187.895 116.367C187.895 115.281 188.775 114.4 189.862 114.4H213.957C215.043 114.4 215.925 115.281 215.925 116.367C215.925 117.454 215.043 118.335 213.957 118.335Z" fill="#C1CAE7"/>
<path fill-rule="evenodd" clip-rule="evenodd" d="M89.7922 88.1697C86.7902 88.1697 84.3566 85.736 84.3566 82.734V72.7681H64.2339V81.859H69.4994C72.6381 81.859 75.1822 84.4031 75.1822 87.5418V150.707H78.1826V115.007C78.1826 111.675 80.8833 108.975 84.2143 108.975H92.1313V88.1697H89.7922Z" fill="#D0DBF0"/>
<path fill-rule="evenodd" clip-rule="evenodd" d="M184.695 62.3765H173.808C173.171 62.3765 172.653 61.8598 172.653 61.2216V55.8599C172.653 55.2217 173.171 54.7051 173.808 54.7051H184.695C185.333 54.7051 185.849 55.2217 185.849 55.8599V61.2216C185.849 61.8598 185.333 62.3765 184.695 62.3765Z" fill="#E0E8F6"/>
<path fill-rule="evenodd" clip-rule="evenodd" d="M181.304 52.5441H177.199V41.8755C177.199 41.4408 177.551 41.0879 177.986 41.0879H180.517C180.952 41.0879 181.304 41.4408 181.304 41.8755V52.5441Z" fill="#E0E8F6"/>
<path fill-rule="evenodd" clip-rule="evenodd" d="M191.486 160.767H70.7672C69.0623 160.767 67.6802 159.386 67.6802 157.68C67.6802 155.976 69.0623 154.593 70.7672 154.593H191.486C193.191 154.593 194.573 155.976 194.573 157.68C194.573 159.386 193.191 160.767 191.486 160.767Z" fill="#7E89A0"/>
<path fill-rule="evenodd" clip-rule="evenodd" d="M264.963 166.255C264.963 158.057 258.317 151.409 250.118 151.409H238.81H231.159H36.4605C34.119 151.409 32.221 149.512 32.221 147.171C32.221 144.829 34.119 142.931 36.4605 142.931H37.7091V136.565H29.688C21.4897 136.565 14.8428 143.211 14.8428 151.409C14.8428 159.609 21.4897 166.255 29.688 166.255H235.273H245.879C248.221 166.255 250.118 168.153 250.118 170.494C250.118 172.836 248.221 174.734 245.879 174.734H237.942H217.073C215.315 174.734 213.89 176.159 213.89 177.917C213.89 179.676 215.315 181.101 217.073 181.101H250.294V181.092C258.411 180.997 264.963 174.395 264.963 166.255Z" fill="#919DB6"/>
<path fill-rule="evenodd" clip-rule="evenodd" d="M201.602 174.733H181.064C179.305 174.733 177.88 176.159 177.88 177.917C177.88 179.675 179.305 181.101 181.064 181.101H201.602C203.36 181.101 204.785 179.675 204.785 177.917C204.785 176.159 203.36 174.733 201.602 174.733Z" fill="#919DB6"/>
<path fill-rule="evenodd" clip-rule="evenodd" d="M187.384 112.526V117.07H191.578V114.623C191.578 112.886 190.17 111.478 188.432 111.478C187.853 111.478 187.384 111.946 187.384 112.526Z" fill="#E9E3D5"/>
<path fill-rule="evenodd" clip-rule="evenodd" d="M218.2 145.3C217.699 144.805 217.442 144.115 217.442 143.411V136.642C217.442 133.921 216.56 131.272 214.926 129.094L207.376 119.027C205.792 116.914 203.306 115.671 200.665 115.671H180.319C177.335 115.671 174.576 117.255 173.073 119.833L165.714 132.449L156.902 133.505C156.632 133.537 156.365 133.582 156.102 133.639L149.497 141.765V149.225C149.497 151.542 151.374 153.42 153.691 153.42H214.786C217.102 153.42 218.979 151.542 218.979 149.225V147.168C218.979 146.466 218.699 145.793 218.2 145.3Z" fill="#FFB545"/>
<path fill-rule="evenodd" clip-rule="evenodd" d="M218.202 145.302C217.7 144.808 217.442 144.116 217.442 143.412V140.838V136.643C217.442 134.029 216.612 131.342 214.926 129.094L207.376 119.028C206.511 117.875 205.378 116.984 204.098 116.409C202.932 117.866 202.849 119.981 204.02 121.544L208.897 128.045L204.586 132.449H209.027C211.33 132.449 213.235 134.296 213.248 136.599V136.643V143.412V143.44C213.251 144.203 212.39 144.659 211.781 144.2C209.852 142.747 207.455 141.886 204.86 141.886C199.979 141.886 195.799 144.934 194.117 149.226H191.579V119.866H187.385V149.226H170.637C169.016 145.526 165.322 142.934 161.03 142.934C156.74 142.934 153.048 145.527 151.427 149.226H149.497C149.497 151.543 151.374 153.42 153.691 153.42H214.786C217.102 153.42 218.98 151.543 218.98 149.226V147.248C218.98 146.524 218.717 145.811 218.202 145.302Z" fill="#FF7E40"/>
<path fill-rule="evenodd" clip-rule="evenodd" d="M178.927 137.692H183.12C183.7 137.692 184.169 137.222 184.169 136.644C184.169 136.064 183.7 135.595 183.12 135.595H178.927C178.347 135.595 177.878 136.064 177.878 136.644C177.878 137.222 178.347 137.692 178.927 137.692Z" fill="#35404A"/>
<path fill-rule="evenodd" clip-rule="evenodd" d="M195.703 137.692H199.897C200.476 137.692 200.946 137.222 200.946 136.644C200.946 136.064 200.476 135.595 199.897 135.595H195.703C195.123 135.595 194.654 136.064 194.654 136.644C194.654 137.222 195.123 137.692 195.703 137.692Z" fill="#35404A"/>
<path fill-rule="evenodd" clip-rule="evenodd" d="M176.695 121.947L170.569 132.449H187.384V119.866H180.319C178.832 119.866 177.444 120.663 176.695 121.947Z" fill="#87F8F4"/>
<path fill-rule="evenodd" clip-rule="evenodd" d="M208.425 127.416L204.021 121.544C203.229 120.487 201.985 119.866 200.665 119.866H191.578V132.449H205.908C207.646 132.449 209.053 131.041 209.053 129.304C209.053 128.622 208.833 127.96 208.425 127.416Z" fill="#87F8F4"/>
<path fill-rule="evenodd" clip-rule="evenodd" d="M213.947 136.644C212.789 136.644 211.85 137.582 211.85 138.741C211.85 139.898 212.789 140.838 213.947 140.838H217.442V136.644H213.947Z" fill="#C5324F"/>
<path fill-rule="evenodd" clip-rule="evenodd" d="M150.645 137.529C150.638 137.541 150.632 137.553 150.625 137.565C150.551 137.692 150.481 137.82 150.415 137.951C149.826 139.104 149.497 140.403 149.497 141.765H151.908C154.225 141.765 156.102 139.887 156.102 137.57V133.64C153.828 134.132 151.828 135.524 150.645 137.529Z" fill="#E9E3D5"/>
<path fill-rule="evenodd" clip-rule="evenodd" d="M161.03 160.76C156.983 160.76 153.691 157.467 153.691 153.42C153.691 149.373 156.983 146.08 161.03 146.08C165.078 146.08 168.37 149.373 168.37 153.42C168.37 157.467 165.078 160.76 161.03 160.76Z" fill="#596775"/>
<path fill-rule="evenodd" clip-rule="evenodd" d="M162.532 146.235C161.671 147.824 161.912 149.853 163.255 151.196L158.807 155.644C157.464 154.3 155.435 154.06 153.846 154.92C154.54 158.25 157.499 160.76 161.031 160.76C165.079 160.76 168.371 157.467 168.371 153.42C168.371 149.887 165.861 146.93 162.532 146.235Z" fill="#35404A"/>
<path fill-rule="evenodd" clip-rule="evenodd" d="M164.176 153.42C164.176 155.158 162.768 156.566 161.03 156.566C159.292 156.566 157.885 155.158 157.885 153.42C157.885 151.682 159.292 150.275 161.03 150.275C162.768 150.275 164.176 151.682 164.176 153.42Z" fill="#E9E3D5"/>
<path fill-rule="evenodd" clip-rule="evenodd" d="M204.86 160.76C200.813 160.76 197.521 157.467 197.521 153.42C197.521 149.373 200.813 146.08 204.86 146.08C208.908 146.08 212.2 149.373 212.2 153.42C212.2 157.467 208.908 160.76 204.86 160.76Z" fill="#596775"/>
<path fill-rule="evenodd" clip-rule="evenodd" d="M206.361 146.235C205.5 147.824 205.741 149.853 207.084 151.196L202.635 155.644C201.293 154.3 199.264 154.06 197.675 154.92C198.369 158.25 201.328 160.76 204.86 160.76C208.908 160.76 212.201 157.467 212.201 153.42C212.201 149.887 209.691 146.93 206.361 146.235Z" fill="#35404A"/>
<path fill-rule="evenodd" clip-rule="evenodd" d="M208.005 153.42C208.005 155.158 206.597 156.566 204.86 156.566C203.122 156.566 201.714 155.158 201.714 153.42C201.714 151.682 203.122 150.275 204.86 150.275C206.597 150.275 208.005 151.682 208.005 153.42Z" fill="#E9E3D5"/>
</g>
<mask id="mask2_1_200" style="mask-type:luminance" maskUnits="userSpaceOnUse" x="0" y="0" width="275" height="275">
<path fill-rule="evenodd" clip-rule="evenodd" d="M137.5 0C61.5611 0 0 61.5603 0 137.5C0 213.44 61.5611 275 137.5 275C213.439 275 275 213.44 275 137.5" fill="white"/>
</mask>
<g mask="url(#mask2_1_200)">
<path fill-rule="evenodd" clip-rule="evenodd" d="M140.705 133.419L129.566 142.769C127.674 144.358 124.852 144.111 123.263 142.219C121.675 140.325 121.921 137.504 123.814 135.915L136.033 125.658C137.328 124.571 139.261 124.739 140.349 126.035L141.255 127.116C142.844 129.008 142.598 131.831 140.705 133.419Z" fill="#DBAA79"/>
</g>
<mask id="mask3_1_200" style="mask-type:luminance" maskUnits="userSpaceOnUse" x="0" y="0" width="275" height="275">
<path fill-rule="evenodd" clip-rule="evenodd" d="M137.5 0C61.5611 0 0 61.5603 0 137.5C0 213.44 61.5611 275 137.5 275C213.439 275 275 213.44 275 137.5" fill="white"/>
</mask>
<g mask="url(#mask3_1_200)">
<path fill-rule="evenodd" clip-rule="evenodd" d="M140.312 131.446L127.69 142.039C126.207 143.285 123.995 143.092 122.751 141.609L122.359 141.141C121.113 139.658 121.306 137.446 122.79 136.201L135.411 125.607C136.894 124.362 139.105 124.555 140.351 126.039L140.743 126.506C141.988 127.989 141.795 130.201 140.312 131.446Z" fill="#EAC897"/>
</g>
<mask id="mask4_1_200" style="mask-type:luminance" maskUnits="userSpaceOnUse" x="0" y="0" width="275" height="275">
<path fill-rule="evenodd" clip-rule="evenodd" d="M137.5 0C61.5611 0 0 61.5603 0 137.5C0 213.44 61.5611 275 137.5 275C213.439 275 275 213.44 275 137.5C275 61.5603 213.439 0 137.5 0Z" fill="white"/>
</mask>
<g mask="url(#mask4_1_200)">
<path fill-rule="evenodd" clip-rule="evenodd" d="M95.5622 177.909C95.3953 178.579 93.5529 211.737 94.0552 211.904C94.5576 212.071 120.179 198.004 120.179 198.004L123.194 180.756L95.5622 177.909Z" fill="#DBAA79"/>
</g>
<mask id="mask5_1_200" style="mask-type:luminance" maskUnits="userSpaceOnUse" x="0" y="0" width="275" height="275">
<path fill-rule="evenodd" clip-rule="evenodd" d="M137.5 0C61.5611 0 0 61.5603 0 137.5C0 213.44 61.5611 275 137.5 275C213.439 275 275 213.44 275 137.5C275 61.5603 213.439 0 137.5 0Z" fill="white"/>
</mask>
<g mask="url(#mask5_1_200)">
<path fill-rule="evenodd" clip-rule="evenodd" d="M130.06 175.564C129.222 177.573 127.997 196.841 119.007 207.382C108.581 219.608 101.591 218.602 100.083 218.938C99.4156 220.273 98.2202 222.4 96.9668 224.569C94.677 228.535 90.6187 231.189 86.0598 231.613C85.4843 231.666 84.8572 231.739 84.1745 231.832C78.75 232.58 78.3129 235.349 74.4613 237.526C70.6097 239.703 66.2558 242.717 60.2265 239.703C53.3348 236.257 47.834 242.717 47.834 242.717L72.2843 200.182C72.2843 200.182 71.2789 171.879 76.1359 163.674C80.9921 155.468 96.5662 140.061 96.5662 140.061C96.5662 140.061 107.117 148.937 89.7007 162.334C89.7007 167.693 89.3653 171.712 89.3653 171.712C89.3653 171.712 102.596 175.564 98.5763 204.535C107.284 204.535 114.653 202.526 116.997 194.488C119.342 188.794 120.849 186.282 120.849 186.282C118.84 186.282 122.524 141.569 122.524 141.569L130.06 175.564Z" fill="#EAC897"/>
</g>
<mask id="mask6_1_200" style="mask-type:luminance" maskUnits="userSpaceOnUse" x="0" y="0" width="275" height="275">
<path fill-rule="evenodd" clip-rule="evenodd" d="M137.5 0C61.5611 0 0 61.5603 0 137.5C0 213.44 61.5611 275 137.5 275C213.439 275 275 213.44 275 137.5" fill="white"/>
</mask>
<g mask="url(#mask6_1_200)">
<path fill-rule="evenodd" clip-rule="evenodd" d="M123.626 194.518H93.2382C88.7937 194.518 85.1909 190.915 85.1909 186.47V111.099C85.1909 106.655 88.7937 103.052 93.2382 103.052H123.626C128.07 103.052 131.673 106.655 131.673 111.099V186.47C131.673 190.915 128.07 194.518 123.626 194.518Z" fill="#535565"/>
</g>
<mask id="mask7_1_200" style="mask-type:luminance" maskUnits="userSpaceOnUse" x="0" y="0" width="275" height="275">
<path fill-rule="evenodd" clip-rule="evenodd" d="M137.5 0C61.5611 0 0 61.5603 0 137.5C0 213.44 61.5611 275 137.5 275C213.439 275 275 213.44 275 137.5" fill="white"/>
</mask>
<g mask="url(#mask7_1_200)">
<path fill-rule="evenodd" clip-rule="evenodd" d="M121.887 192.161H94.9771C90.8736 192.161 87.5474 188.834 87.5474 184.731V112.839C87.5474 108.736 90.8736 105.41 94.9771 105.41H121.887C125.99 105.41 129.316 108.736 129.316 112.839V184.731C129.316 188.834 125.99 192.161 121.887 192.161Z" fill="#FFE3E0"/>
</g>
<mask id="mask8_1_200" style="mask-type:luminance" maskUnits="userSpaceOnUse" x="0" y="0" width="275" height="275">
<path fill-rule="evenodd" clip-rule="evenodd" d="M137.5 0C61.5611 0 0 61.5603 0 137.5C0 213.44 61.5611 275 137.5 275C213.439 275 275 213.44 275 137.5" fill="white"/>
</mask>
<g mask="url(#mask8_1_200)">
<path fill-rule="evenodd" clip-rule="evenodd" d="M121.887 192.161H94.9771C90.8736 192.161 87.5474 188.834 87.5474 184.731V112.839C87.5474 108.736 90.8736 105.41 94.9771 105.41H121.887C125.99 105.41 129.316 108.736 129.316 112.839V184.731C129.316 188.834 125.99 192.161 121.887 192.161Z" fill="#5F0666"/>
</g>
<mask id="mask9_1_200" style="mask-type:luminance" maskUnits="userSpaceOnUse" x="0" y="0" width="275" height="275">
<path fill-rule="evenodd" clip-rule="evenodd" d="M137.5 0C61.5611 0 0 61.5603 0 137.5C0 213.44 61.5611 275 137.5 275C213.439 275 275 213.44 275 137.5" fill="white"/>
</mask>
<g mask="url(#mask9_1_200)">
<path fill-rule="evenodd" clip-rule="evenodd" d="M119.812 132.161C119.812 138.446 114.717 143.541 108.432 143.541C102.146 143.541 97.0518 138.446 97.0518 132.161C97.0518 125.876 102.146 120.781 108.432 120.781C114.717 120.781 119.812 125.876 119.812 132.161Z" fill="white"/>
</g>
<mask id="mask10_1_200" style="mask-type:luminance" maskUnits="userSpaceOnUse" x="0" y="0" width="275" height="275">
<path fill-rule="evenodd" clip-rule="evenodd" d="M137.5 0C61.5611 0 0 61.5603 0 137.5C0 213.44 61.5611 275 137.5 275C213.439 275 275 213.44 275 137.5" fill="white"/>
</mask>
<g mask="url(#mask10_1_200)">
<path d="M103.917 127.564C105.089 126.438 106.679 125.745 108.431 125.745C110.184 125.745 111.774 126.438 112.946 127.564" stroke="#5F0666" stroke-width="1.718"/>
</g>
<mask id="mask11_1_200" style="mask-type:luminance" maskUnits="userSpaceOnUse" x="0" y="0" width="275" height="275">
<path fill-rule="evenodd" clip-rule="evenodd" d="M137.5 0C61.5611 0 0 61.5603 0 137.5C0 213.44 61.5611 275 137.5 275C213.439 275 275 213.44 275 137.5" fill="white"/>
</mask>
<g mask="url(#mask11_1_200)">
<path d="M113.433 136.442C112.237 137.871 110.441 138.781 108.432 138.781C106.423 138.781 104.626 137.871 103.43 136.442" stroke="#5F0666" stroke-width="1.718"/>
</g>
<mask id="mask12_1_200" style="mask-type:luminance" maskUnits="userSpaceOnUse" x="0" y="0" width="275" height="275">
<path fill-rule="evenodd" clip-rule="evenodd" d="M137.5 0C61.5611 0 0 61.5603 0 137.5C0 213.44 61.5611 275 137.5 275C213.439 275 275 213.44 275 137.5" fill="white"/>
</mask>
<g mask="url(#mask12_1_200)">
<path d="M102.053 130.918C101.962 131.352 101.913 131.802 101.913 132.262C101.913 133.854 102.484 135.31 103.43 136.442" stroke="#5F0666" stroke-width="1.718"/>
</g>
<mask id="mask13_1_200" style="mask-type:luminance" maskUnits="userSpaceOnUse" x="0" y="0" width="275" height="275">
<path fill-rule="evenodd" clip-rule="evenodd" d="M137.5 0C61.5611 0 0 61.5603 0 137.5C0 213.44 61.5611 275 137.5 275C213.439 275 275 213.44 275 137.5" fill="white"/>
</mask>
<g mask="url(#mask13_1_200)">
<path d="M113.433 136.442C114.38 135.31 114.95 133.854 114.95 132.263C114.95 131.803 114.901 131.353 114.81 130.919" stroke="#5F0666" stroke-width="1.718"/>
</g>
<mask id="mask14_1_200" style="mask-type:luminance" maskUnits="userSpaceOnUse" x="0" y="0" width="275" height="275">
<path fill-rule="evenodd" clip-rule="evenodd" d="M137.5 0C61.5611 0 0 61.5603 0 137.5C0 213.44 61.5611 275 137.5 275C213.439 275 275 213.44 275 137.5" fill="white"/>
</mask>
<g mask="url(#mask14_1_200)">
<path d="M103.918 127.563C102.991 128.454 102.327 129.614 102.053 130.918" stroke="#5F0666" stroke-width="1.718"/>
</g>
<mask id="mask15_1_200" style="mask-type:luminance" maskUnits="userSpaceOnUse" x="0" y="0" width="275" height="275">
<path fill-rule="evenodd" clip-rule="evenodd" d="M137.5 0C61.5611 0 0 61.5603 0 137.5C0 213.44 61.5611 275 137.5 275C213.439 275 275 213.44 275 137.5" fill="white"/>
</mask>
<g mask="url(#mask15_1_200)">
<path d="M112.945 127.563C113.872 128.454 114.536 129.614 114.81 130.918" stroke="#5F0666" stroke-width="1.718"/>
</g>
<mask id="mask16_1_200" style="mask-type:luminance" maskUnits="userSpaceOnUse" x="0" y="0" width="275" height="275">
<path fill-rule="evenodd" clip-rule="evenodd" d="M137.5 0C61.5611 0 0 61.5603 0 137.5C0 213.44 61.5611 275 137.5 275C213.439 275 275 213.44 275 137.5" fill="white"/>
</mask>
<g mask="url(#mask16_1_200)">
<path d="M108.581 133.788C108.531 133.787 108.481 133.785 108.432 133.785C108.382 133.785 108.333 133.787 108.283 133.788" stroke="#5F0666" stroke-width="1.718"/>
</g>
<mask id="mask17_1_200" style="mask-type:luminance" maskUnits="userSpaceOnUse" x="0" y="0" width="275" height="275">
<path fill-rule="evenodd" clip-rule="evenodd" d="M137.5 0C61.5611 0 0 61.5603 0 137.5C0 213.44 61.5611 275 137.5 275C213.439 275 275 213.44 275 137.5" fill="white"/>
</mask>
<g mask="url(#mask17_1_200)">
<path d="M113.433 136.442C112.491 134.895 110.676 133.837 108.581 133.788" stroke="#5F0666" stroke-width="1.718"/>
</g>
<mask id="mask18_1_200" style="mask-type:luminance" maskUnits="userSpaceOnUse" x="0" y="0" width="275" height="275">
<path fill-rule="evenodd" clip-rule="evenodd" d="M137.5 0C61.5611 0 0 61.5603 0 137.5C0 213.44 61.5611 275 137.5 275C213.439 275 275 213.44 275 137.5" fill="white"/>
</mask>
<g mask="url(#mask18_1_200)">
<path d="M108.282 133.788C106.187 133.837 104.372 134.895 103.43 136.442" stroke="#5F0666" stroke-width="1.718"/>
</g>
<mask id="mask19_1_200" style="mask-type:luminance" maskUnits="userSpaceOnUse" x="0" y="0" width="275" height="275">
<path fill-rule="evenodd" clip-rule="evenodd" d="M137.5 0C61.5611 0 0 61.5603 0 137.5C0 213.44 61.5611 275 137.5 275C213.439 275 275 213.44 275 137.5" fill="white"/>
</mask>
<g mask="url(#mask19_1_200)">
<path d="M108.581 133.788C111.652 133.75 114.2 132.532 114.81 130.919" stroke="#5F0666" stroke-width="1.718"/>
</g>
<mask id="mask20_1_200" style="mask-type:luminance" maskUnits="userSpaceOnUse" x="0" y="0" width="275" height="275">
<path fill-rule="evenodd" clip-rule="evenodd" d="M137.5 0C61.5611 0 0 61.5603 0 137.5C0 213.44 61.5611 275 137.5 275C213.439 275 275 213.44 275 137.5" fill="white"/>
</mask>
<g mask="url(#mask20_1_200)">
<path d="M108.581 133.788C108.531 133.788 108.481 133.79 108.432 133.79C108.382 133.79 108.333 133.788 108.283 133.788" stroke="#5F0666" stroke-width="1.718"/>
</g>
<mask id="mask21_1_200" style="mask-type:luminance" maskUnits="userSpaceOnUse" x="0" y="0" width="275" height="275">
<path fill-rule="evenodd" clip-rule="evenodd" d="M137.5 0C61.5611 0 0 61.5603 0 137.5C0 213.44 61.5611 275 137.5 275C213.439 275 275 213.44 275 137.5" fill="white"/>
</mask>
<g mask="url(#mask21_1_200)">
<path d="M108.283 133.788C105.211 133.75 102.664 132.532 102.053 130.919" stroke="#5F0666" stroke-width="1.718"/>
</g>
<mask id="mask22_1_200" style="mask-type:luminance" maskUnits="userSpaceOnUse" x="0" y="0" width="275" height="275">
<path fill-rule="evenodd" clip-rule="evenodd" d="M137.5 0C61.5611 0 0 61.5603 0 137.5C0 213.44 61.5611 275 137.5 275C213.439 275 275 213.44 275 137.5" fill="white"/>
</mask>
<g mask="url(#mask22_1_200)">
<path fill-rule="evenodd" clip-rule="evenodd" d="M115.137 108.675H101.726C100.047 108.675 98.6851 107.314 98.6851 105.635V104.284H118.177V105.635C118.177 107.314 116.817 108.675 115.137 108.675Z" fill="#535565"/>
</g>
<mask id="mask23_1_200" style="mask-type:luminance" maskUnits="userSpaceOnUse" x="0" y="0" width="275" height="275">
<path fill-rule="evenodd" clip-rule="evenodd" d="M137.5 0C61.5611 0 0 61.5603 0 137.5C0 213.44 61.5611 275 137.5 275C213.439 275 275 213.44 275 137.5" fill="white"/>
</mask>
<g mask="url(#mask23_1_200)">
<path fill-rule="evenodd" clip-rule="evenodd" d="M107.608 182.402C101.175 180.959 97.1399 174.575 98.5809 168.151C98.6445 167.869 98.894 167.671 99.1794 167.67L101.923 167.653C102.222 167.65 102.479 167.863 102.533 168.157L103.106 171.237C103.157 171.507 103.022 171.778 102.777 171.901L100.977 172.804C101.458 174.975 102.705 176.914 104.426 178.248L106.011 177.006C106.228 176.837 106.53 176.83 106.753 176.992L109.292 178.826C109.534 179.002 109.616 179.324 109.487 179.594L108.3 182.067C108.175 182.326 107.889 182.465 107.608 182.402Z" fill="white"/>
</g>
<mask id="mask24_1_200" style="mask-type:luminance" maskUnits="userSpaceOnUse" x="0" y="0" width="275" height="275">
<path fill-rule="evenodd" clip-rule="evenodd" d="M137.5 0C61.5611 0 0 61.5603 0 137.5C0 213.44 61.5611 275 137.5 275C213.439 275 275 213.44 275 137.5" fill="white"/>
</mask>
<g mask="url(#mask24_1_200)">
<path fill-rule="evenodd" clip-rule="evenodd" d="M109.658 172.742C109.658 173.381 109.139 173.9 108.499 173.9C107.859 173.9 107.34 173.381 107.34 172.742C107.34 172.101 107.859 171.582 108.499 171.582C109.139 171.582 109.658 172.101 109.658 172.742Z" fill="white"/>
</g>
<mask id="mask25_1_200" style="mask-type:luminance" maskUnits="userSpaceOnUse" x="0" y="0" width="275" height="275">
<path fill-rule="evenodd" clip-rule="evenodd" d="M137.5 0C61.5611 0 0 61.5603 0 137.5C0 213.44 61.5611 275 137.5 275C213.439 275 275 213.44 275 137.5" fill="white"/>
</mask>
<g mask="url(#mask25_1_200)">
<path fill-rule="evenodd" clip-rule="evenodd" d="M113.384 172.742C113.384 173.381 112.865 173.9 112.226 173.9C111.585 173.9 111.066 173.381 111.066 172.742C111.066 172.101 111.585 171.582 112.226 171.582C112.865 171.582 113.384 172.101 113.384 172.742Z" fill="white"/>
</g>
<mask id="mask26_1_200" style="mask-type:luminance" maskUnits="userSpaceOnUse" x="0" y="0" width="275" height="275">
<path fill-rule="evenodd" clip-rule="evenodd" d="M137.5 0C61.5611 0 0 61.5603 0 137.5C0 213.44 61.5611 275 137.5 275C213.439 275 275 213.44 275 137.5" fill="white"/>
</mask>
<g mask="url(#mask26_1_200)">
<path fill-rule="evenodd" clip-rule="evenodd" d="M117.11 172.742C117.11 173.381 116.591 173.9 115.951 173.9C115.311 173.9 114.792 173.381 114.792 172.742C114.792 172.101 115.311 171.582 115.951 171.582C116.591 171.582 117.11 172.101 117.11 172.742Z" fill="white"/>
</g>
<mask id="mask27_1_200" style="mask-type:luminance" maskUnits="userSpaceOnUse" x="0" y="0" width="275" height="275">
<path fill-rule="evenodd" clip-rule="evenodd" d="M137.5 0C61.5611 0 0 61.5603 0 137.5C0 213.44 61.5611 275 137.5 275C213.439 275 275 213.44 275 137.5" fill="white"/>
</mask>
<g mask="url(#mask27_1_200)">
<path fill-rule="evenodd" clip-rule="evenodd" d="M120.597 152.342H97.0316C96.4601 152.342 95.9976 151.879 95.9976 151.308C95.9976 150.737 96.4601 150.274 97.0316 150.274H120.597C121.167 150.274 121.63 150.737 121.63 151.308C121.63 151.879 121.167 152.342 120.597 152.342Z" fill="white"/>
</g>
<mask id="mask28_1_200" style="mask-type:luminance" maskUnits="userSpaceOnUse" x="0" y="0" width="275" height="275">
<path fill-rule="evenodd" clip-rule="evenodd" d="M137.5 0C61.5611 0 0 61.5603 0 137.5C0 213.44 61.5611 275 137.5 275C213.439 275 275 213.44 275 137.5" fill="white"/>
</mask>
<g mask="url(#mask28_1_200)">
<path fill-rule="evenodd" clip-rule="evenodd" d="M115.496 157.136H102.132C101.56 157.136 101.098 156.673 101.098 156.102C101.098 155.531 101.56 155.068 102.132 155.068H115.496C116.067 155.068 116.53 155.531 116.53 156.102C116.53 156.673 116.067 157.136 115.496 157.136Z" fill="white"/>
</g>
<mask id="mask29_1_200" style="mask-type:luminance" maskUnits="userSpaceOnUse" x="0" y="0" width="275" height="275">
<path fill-rule="evenodd" clip-rule="evenodd" d="M137.5 0C61.5611 0 0 61.5603 0 137.5C0 213.44 61.5611 275 137.5 275C213.439 275 275 213.44 275 137.5C275 61.5603 213.439 0 137.5 0Z" fill="white"/>
</mask>
<g mask="url(#mask29_1_200)">
<path fill-rule="evenodd" clip-rule="evenodd" d="M83.8006 171.353C99.4175 174.292 100.202 185.732 99.2824 204.633C84.4523 202.737 81.6196 185.163 81.6196 185.163L83.8006 171.353Z" fill="#EAC897"/>
</g>
<mask id="mask30_1_200" style="mask-type:luminance" maskUnits="userSpaceOnUse" x="0" y="0" width="275" height="275">
<path fill-rule="evenodd" clip-rule="evenodd" d="M137.5 0C61.5611 0 0 61.5603 0 137.5C0 213.44 61.5611 275 137.5 275C213.439 275 275 213.44 275 137.5" fill="white"/>
</mask>
<g mask="url(#mask30_1_200)">
<path fill-rule="evenodd" clip-rule="evenodd" d="M74.4336 168.126C77.9776 150.863 91.3636 139.762 91.3636 139.762C91.3636 139.762 101.994 149.949 85.2874 164.221C85.2874 170.364 85.409 171.995 85.409 171.995" fill="#EAC897"/>
</g>
<mask id="mask31_1_200" style="mask-type:luminance" maskUnits="userSpaceOnUse" x="0" y="0" width="275" height="275">
<path fill-rule="evenodd" clip-rule="evenodd" d="M137.5 0C61.5611 0 0 61.5603 0 137.5C0 213.44 61.5611 275 137.5 275C213.439 275 275 213.44 275 137.5" fill="white"/>
</mask>
<g mask="url(#mask31_1_200)">
<path fill-rule="evenodd" clip-rule="evenodd" d="M132.57 158.222H127.549C124.943 158.222 122.83 156.11 122.83 153.503C122.83 150.897 124.943 148.785 127.549 148.785H132.57C135.176 148.785 137.288 150.897 137.288 153.503C137.288 156.11 135.176 158.222 132.57 158.222Z" fill="#EAC897"/>
</g>
<mask id="mask32_1_200" style="mask-type:luminance" maskUnits="userSpaceOnUse" x="0" y="0" width="275" height="275">
<path fill-rule="evenodd" clip-rule="evenodd" d="M137.5 0C61.5611 0 0 61.5603 0 137.5C0 213.44 61.5611 275 137.5 275C213.439 275 275 213.44 275 137.5" fill="white"/>
</mask>
<g mask="url(#mask32_1_200)">
<path fill-rule="evenodd" clip-rule="evenodd" d="M130.677 168.94H127.161C124.769 168.94 122.83 167.001 122.83 164.61V163.832C122.83 161.441 124.769 159.502 127.161 159.502H130.677C133.069 159.502 135.008 161.441 135.008 163.832V164.61C135.008 167.001 133.069 168.94 130.677 168.94Z" fill="#EAC897"/>
</g>
<mask id="mask33_1_200" style="mask-type:luminance" maskUnits="userSpaceOnUse" x="0" y="0" width="275" height="275">
<path fill-rule="evenodd" clip-rule="evenodd" d="M137.5 0C61.5611 0 0 61.5603 0 137.5C0 213.44 61.5611 275 137.5 275C213.439 275 275 213.44 275 137.5" fill="white"/>
</mask>
<g mask="url(#mask33_1_200)">
<path fill-rule="evenodd" clip-rule="evenodd" d="M131.824 180.327H131.129C128.524 180.327 126.411 178.215 126.411 175.609C126.411 173.002 128.524 170.891 131.129 170.891H131.824C134.43 170.891 136.543 173.002 136.543 175.609C136.543 178.215 134.43 180.327 131.824 180.327Z" fill="#EAC897"/>
</g>
<mask id="mask34_1_200" style="mask-type:luminance" maskUnits="userSpaceOnUse" x="0" y="0" width="275" height="275">
<path fill-rule="evenodd" clip-rule="evenodd" d="M137.5 0C61.5611 0 0 61.5603 0 137.5C0 213.44 61.5611 275 137.5 275C213.439 275 275 213.44 275 137.5" fill="white"/>
</mask>
<g mask="url(#mask34_1_200)">
<path fill-rule="evenodd" clip-rule="evenodd" d="M128.798 157.006C128.844 157.006 128.89 157.006 128.936 157.006C129.506 156.998 129.757 156.312 129.366 155.896C128.779 155.27 128.417 154.43 128.417 153.504C128.417 152.577 128.779 151.736 129.366 151.111C129.753 150.699 129.512 150.011 128.948 150.001C128.927 150.001 128.906 150.001 128.885 150.001C126.948 150.001 125.379 151.571 125.382 153.509C125.385 155.372 126.935 156.959 128.798 157.006Z" fill="#ECDBD0"/>
</g>
<mask id="mask35_1_200" style="mask-type:luminance" maskUnits="userSpaceOnUse" x="0" y="0" width="275" height="275">
<path fill-rule="evenodd" clip-rule="evenodd" d="M137.5 0C61.5611 0 0 61.5603 0 137.5C0 213.44 61.5611 275 137.5 275C213.439 275 275 213.44 275 137.5" fill="white"/>
</mask>
<g mask="url(#mask35_1_200)">
<path fill-rule="evenodd" clip-rule="evenodd" d="M128.382 167.732C128.594 167.739 128.8 167.726 129.002 167.696C129.398 167.637 129.537 167.155 129.234 166.893C128.489 166.247 128.02 165.292 128.027 164.227C128.035 163.163 128.517 162.216 129.272 161.58C129.575 161.323 129.45 160.838 129.058 160.774C128.882 160.745 128.703 160.729 128.519 160.727C126.583 160.714 125.003 162.275 124.992 164.211C124.981 166.075 126.52 167.672 128.382 167.732Z" fill="#ECDBD0"/>
</g>
<mask id="mask36_1_200" style="mask-type:luminance" maskUnits="userSpaceOnUse" x="0" y="0" width="275" height="275">
<path fill-rule="evenodd" clip-rule="evenodd" d="M137.5 0C61.5611 0 0 61.5603 0 137.5C0 213.44 61.5611 275 137.5 275C213.439 275 275 213.44 275 137.5" fill="white"/>
</mask>
<g mask="url(#mask36_1_200)">
<path fill-rule="evenodd" clip-rule="evenodd" d="M130.434 178.387C130.936 178.51 131.422 178.491 131.865 178.368C132.036 178.32 132.066 178.094 131.923 177.991C131.192 177.469 130.722 176.61 130.742 175.645C130.763 174.528 132.367 173.663 132.388 173.14C132.403 172.73 131.609 172.824 131.172 172.836C129.541 172.875 128.206 174.157 128.304 175.826C128.375 177.038 129.254 178.099 130.434 178.387Z" fill="#ECDBD0"/>
</g>
<mask id="mask37_1_200" style="mask-type:luminance" maskUnits="userSpaceOnUse" x="0" y="0" width="275" height="275">
<path fill-rule="evenodd" clip-rule="evenodd" d="M137.5 0C61.5611 0 0 61.5603 0 137.5C0 213.44 61.5611 275 137.5 275C213.439 275 275 213.44 275 137.5C275 61.5603 213.439 0 137.5 0Z" fill="white"/>
</mask>
<g mask="url(#mask37_1_200)">
<path fill-rule="evenodd" clip-rule="evenodd" d="M89.6663 237.73L60.1094 214.618L64.4418 209.076L93.9988 232.189L89.6663 237.73Z" fill="#ECECEC"/>
</g>
<mask id="mask38_1_200" style="mask-type:luminance" maskUnits="userSpaceOnUse" x="0" y="0" width="275" height="275">
<path fill-rule="evenodd" clip-rule="evenodd" d="M137.5 0C61.5611 0 0 61.5603 0 137.5C0 213.44 61.5611 275 137.5 275C213.439 275 275 213.44 275 137.5C275 61.5603 213.439 0 137.5 0Z" fill="white"/>
</mask>
<g mask="url(#mask38_1_200)">
<path fill-rule="evenodd" clip-rule="evenodd" d="M74.7785 263.754L38.4419 235.34L56.7191 211.966L93.0556 240.381L74.7785 263.754Z" fill="#535565"/>
</g>
<mask id="mask39_1_200" style="mask-type:luminance" maskUnits="userSpaceOnUse" x="0" y="0" width="275" height="275">
<path fill-rule="evenodd" clip-rule="evenodd" d="M137.5 0C61.5611 0 0 61.5603 0 137.5C0 213.44 61.5611 275 137.5 275C213.439 275 275 213.44 275 137.5C275 61.5603 213.439 0 137.5 0Z" fill="white"/>
</mask>
<g mask="url(#mask39_1_200)">
<path fill-rule="evenodd" clip-rule="evenodd" d="M69.6965 222.114L59.4556 214.105L63.788 208.565L74.029 216.573L69.6965 222.114Z" fill="#CFCFCF"/>
</g>
<mask id="mask40_1_200" style="mask-type:luminance" maskUnits="userSpaceOnUse" x="0" y="0" width="275" height="275">
<path fill-rule="evenodd" clip-rule="evenodd" d="M137.5 0C61.5611 0 0 61.5603 0 137.5C0 213.44 61.5611 275 137.5 275C213.439 275 275 213.44 275 137.5C275 61.5603 213.439 0 137.5 0Z" fill="white"/>
</mask>
<g mask="url(#mask40_1_200)">
<path fill-rule="evenodd" clip-rule="evenodd" d="M49.569 244.239L38.4268 235.527L56.7039 212.153L67.847 220.867L49.569 244.239Z" fill="#38414A"/>
</g>
<mask id="mask41_1_200" style="mask-type:luminance" maskUnits="userSpaceOnUse" x="0" y="0" width="275" height="275">
<path fill-rule="evenodd" clip-rule="evenodd" d="M137.5 0C61.5611 0 0 61.5603 0 137.5C0 213.44 61.5611 275 137.5 275C213.439 275 275 213.44 275 137.5" fill="white"/>
</mask>
<g mask="url(#mask41_1_200)">
<path fill-rule="evenodd" clip-rule="evenodd" d="M89.5366 141.45C89.5366 141.45 90.8266 143.593 90.8266 144.284C90.8266 144.975 86.2342 150.185 84.8696 150.646C84.3331 150.828 81.6411 151.113 81.6411 151.113C81.6411 151.113 85.6652 144.806 89.5366 141.45Z" fill="#ECDBD0"/>
</g>
</svg>
