<svg width="275" height="275" viewBox="0 0 275 275" fill="none" xmlns="http://www.w3.org/2000/svg">
<mask id="mask0_1_404" style="mask-type:luminance" maskUnits="userSpaceOnUse" x="0" y="0" width="275" height="275">
<path fill-rule="evenodd" clip-rule="evenodd" d="M0 0H275V275H0V0Z" fill="white"/>
</mask>
<g mask="url(#mask0_1_404)">
<path fill-rule="evenodd" clip-rule="evenodd" d="M137.5 0C61.5611 0 0 61.5611 0 137.5C0 213.439 61.5611 275 137.5 275C213.439 275 275 213.439 275 137.5C275 61.5611 213.439 0 137.5 0Z" fill="#EFF3F9"/>
</g>
<path fill-rule="evenodd" clip-rule="evenodd" d="M104.781 228.863C94.9046 228.863 86.8978 220.856 86.8978 210.98C86.8978 201.103 94.9046 193.097 104.781 193.097C114.658 193.097 122.664 201.103 122.664 210.98C122.664 220.856 114.658 228.863 104.781 228.863Z" fill="white"/>
<path fill-rule="evenodd" clip-rule="evenodd" d="M68.6173 191.85C65.7345 191.85 63.3978 189.513 63.3978 186.63C63.3978 183.747 65.7345 181.41 68.6173 181.41C71.5008 181.41 73.8375 183.747 73.8375 186.63C73.8375 189.513 71.5008 191.85 68.6173 191.85Z" fill="white"/>
<path fill-rule="evenodd" clip-rule="evenodd" d="M154.226 217.936C152.305 217.936 150.748 216.379 150.748 214.458C150.748 212.537 152.305 210.979 154.226 210.979C156.147 210.979 157.704 212.537 157.704 214.458C157.704 216.379 156.147 217.936 154.226 217.936Z" fill="white"/>
<path fill-rule="evenodd" clip-rule="evenodd" d="M202.361 53.7066C200.44 53.7066 198.883 52.1495 198.883 50.2285C198.883 48.3075 200.44 46.7505 202.361 46.7505C204.282 46.7505 205.839 48.3075 205.839 50.2285C205.839 52.1495 204.282 53.7066 202.361 53.7066Z" fill="white"/>
<path fill-rule="evenodd" clip-rule="evenodd" d="M181.588 93.2832H189.376V92.6052C189.376 90.317 187.521 88.4619 185.232 88.4619H162.878C160.59 88.4619 158.735 90.317 158.735 92.6052V158.681H176.108V98.7633C176.108 95.7359 178.561 93.2832 181.588 93.2832Z" fill="#E0E8F6"/>
<mask id="mask1_1_404" style="mask-type:luminance" maskUnits="userSpaceOnUse" x="0" y="0" width="275" height="275">
<path fill-rule="evenodd" clip-rule="evenodd" d="M0 275H275V0H0V275Z" fill="white"/>
</mask>
<g mask="url(#mask1_1_404)">
<path fill-rule="evenodd" clip-rule="evenodd" d="M135.216 158.681H154.215V101.515H135.216V158.681Z" fill="#D0DBF0"/>
<path fill-rule="evenodd" clip-rule="evenodd" d="M182.399 85.3196H165.711C165.073 85.3196 164.556 84.8022 164.556 84.1648V77.3931C164.556 76.7557 165.073 76.2383 165.711 76.2383H182.399C183.037 76.2383 183.554 76.7557 183.554 77.3931V84.1648C183.554 84.8022 183.037 85.3196 182.399 85.3196Z" fill="#E0E8F6"/>
<path fill-rule="evenodd" clip-rule="evenodd" d="M131.1 158.681H92.4219V61.3585C92.4219 59.2229 94.4287 57.6547 96.5016 58.1721L128.611 66.1821C130.074 66.5469 131.1 67.8607 131.1 69.3685V158.681Z" fill="#D0DBF0"/>
<path fill-rule="evenodd" clip-rule="evenodd" d="M75.2759 158.681V125.041C75.2759 122.024 77.7207 119.58 80.7377 119.58H86.934V158.681H75.2759Z" fill="#E0E8F6"/>
<path fill-rule="evenodd" clip-rule="evenodd" d="M172.683 152.279C171.882 152.279 171.233 151.629 171.233 150.828V99.764C171.233 98.9628 171.882 98.3135 172.683 98.3135C173.484 98.3135 174.134 98.9628 174.134 99.764V150.828C174.134 151.629 173.484 152.279 172.683 152.279Z" fill="#C0CBE2"/>
<path fill-rule="evenodd" clip-rule="evenodd" d="M164.634 152.279C163.832 152.279 163.183 151.63 163.183 150.829V99.7645C163.183 98.9633 163.832 98.314 164.634 98.314C165.435 98.314 166.084 98.9633 166.084 99.7645V150.829C166.084 151.63 165.435 152.279 164.634 152.279Z" fill="#C0CBE2"/>
<path fill-rule="evenodd" clip-rule="evenodd" d="M123.765 80.7785H100.866C99.6122 80.7785 98.5964 79.7619 98.5964 78.5085C98.5964 77.2543 99.6122 76.2378 100.866 76.2378H123.765C125.019 76.2378 126.035 77.2543 126.035 78.5085C126.035 79.7619 125.019 80.7785 123.765 80.7785Z" fill="#C1CAE7"/>
<path fill-rule="evenodd" clip-rule="evenodd" d="M123.765 90.7321H100.866C99.6122 90.7321 98.5964 89.7155 98.5964 88.4621C98.5964 87.208 99.6122 86.1914 100.866 86.1914H123.765C125.019 86.1914 126.035 87.208 126.035 88.4621C126.035 89.7155 125.019 90.7321 123.765 90.7321Z" fill="#C1CAE7"/>
<path fill-rule="evenodd" clip-rule="evenodd" d="M123.765 100.685H100.866C99.6122 100.685 98.5964 99.6687 98.5964 98.4153C98.5964 97.1611 99.6122 96.1445 100.866 96.1445H123.765C125.019 96.1445 126.035 97.1611 126.035 98.4153C126.035 99.6687 125.019 100.685 123.765 100.685Z" fill="#C1CAE7"/>
<path fill-rule="evenodd" clip-rule="evenodd" d="M123.765 110.639H100.866C99.6122 110.639 98.5964 109.622 98.5964 108.368C98.5964 107.114 99.6122 106.098 100.866 106.098H123.765C125.019 106.098 126.035 107.114 126.035 108.368C126.035 109.622 125.019 110.639 123.765 110.639Z" fill="#C1CAE7"/>
<path fill-rule="evenodd" clip-rule="evenodd" d="M123.765 120.592H100.866C99.6122 120.592 98.5964 119.575 98.5964 118.322C98.5964 117.068 99.6122 116.051 100.866 116.051H123.765C125.019 116.051 126.035 117.068 126.035 118.322C126.035 119.575 125.019 120.592 123.765 120.592Z" fill="#C1CAE7"/>
<path fill-rule="evenodd" clip-rule="evenodd" d="M123.765 130.545H100.866C99.6122 130.545 98.5964 129.529 98.5964 128.275C98.5964 127.021 99.6122 126.004 100.866 126.004H123.765C125.019 126.004 126.035 127.021 126.035 128.275C126.035 129.529 125.019 130.545 123.765 130.545Z" fill="#C1CAE7"/>
<path fill-rule="evenodd" clip-rule="evenodd" d="M123.765 140.499H100.866C99.6122 140.499 98.5964 139.482 98.5964 138.229C98.5964 136.975 99.6122 135.958 100.866 135.958H123.765C125.019 135.958 126.035 136.975 126.035 138.229C126.035 139.482 125.019 140.499 123.765 140.499Z" fill="#C1CAE7"/>
<path fill-rule="evenodd" clip-rule="evenodd" d="M123.765 150.452H100.866C99.6122 150.452 98.5964 149.436 98.5964 148.182C98.5964 146.928 99.6122 145.911 100.866 145.911H123.765C125.019 145.911 126.035 146.928 126.035 148.182C126.035 149.436 125.019 150.452 123.765 150.452Z" fill="#C1CAE7"/>
<path fill-rule="evenodd" clip-rule="evenodd" d="M66.3542 158.682H35.7131V98.2364C35.7131 95.5007 37.9306 93.2832 40.6663 93.2832H61.4018C64.1367 93.2832 66.3542 95.5007 66.3542 98.2364V158.682Z" fill="#E0E8F6"/>
<path fill-rule="evenodd" clip-rule="evenodd" d="M60.5526 106.315H41.5148C40.4482 106.315 39.5842 105.451 39.5842 104.385V104.312C39.5842 103.245 40.4482 102.38 41.5148 102.38H60.5526C61.6184 102.38 62.4831 103.245 62.4831 104.312V104.385C62.4831 105.451 61.6184 106.315 60.5526 106.315Z" fill="#C1CAE7"/>
<path fill-rule="evenodd" clip-rule="evenodd" d="M60.5526 114.941H41.5148C40.4482 114.941 39.5842 114.076 39.5842 113.01V112.937C39.5842 111.871 40.4482 111.006 41.5148 111.006H60.5526C61.6184 111.006 62.4831 111.871 62.4831 112.937V113.01C62.4831 114.076 61.6184 114.941 60.5526 114.941Z" fill="#C1CAE7"/>
<path fill-rule="evenodd" clip-rule="evenodd" d="M60.5526 123.566H41.5148C40.4482 123.566 39.5842 122.701 39.5842 121.635V121.562C39.5842 120.496 40.4482 119.631 41.5148 119.631H60.5526C61.6184 119.631 62.4831 120.496 62.4831 121.562V121.635C62.4831 122.701 61.6184 123.566 60.5526 123.566Z" fill="#C1CAE7"/>
<path fill-rule="evenodd" clip-rule="evenodd" d="M60.5526 132.191H41.5148C40.4482 132.191 39.5842 131.327 39.5842 130.261V130.187C39.5842 129.121 40.4482 128.256 41.5148 128.256H60.5526C61.6184 128.256 62.4831 129.121 62.4831 130.187V130.261C62.4831 131.327 61.6184 132.191 60.5526 132.191Z" fill="#C1CAE7"/>
<path fill-rule="evenodd" clip-rule="evenodd" d="M60.5526 140.816H41.5148C40.4482 140.816 39.5842 139.952 39.5842 138.885V138.813C39.5842 137.746 40.4482 136.881 41.5148 136.881H60.5526C61.6184 136.881 62.4831 137.746 62.4831 138.813V138.885C62.4831 139.952 61.6184 140.816 60.5526 140.816Z" fill="#C1CAE7"/>
<path fill-rule="evenodd" clip-rule="evenodd" d="M60.5526 149.441H41.5148C40.4482 149.441 39.5842 148.576 39.5842 147.511V147.437C39.5842 146.371 40.4482 145.507 41.5148 145.507H60.5526C61.6184 145.507 62.4831 146.371 62.4831 147.437V147.511C62.4831 148.576 61.6184 149.441 60.5526 149.441Z" fill="#C1CAE7"/>
<path fill-rule="evenodd" clip-rule="evenodd" d="M215.466 161.425H177.96V101.507C177.96 98.4804 180.413 96.0269 183.439 96.0269H209.986C213.012 96.0269 215.466 98.4804 215.466 101.507V161.425Z" fill="#E0E8F6"/>
<path fill-rule="evenodd" clip-rule="evenodd" d="M208.76 109.059H184.666C183.578 109.059 182.698 108.179 182.698 107.092C182.698 106.006 183.578 105.125 184.666 105.125H208.76C209.846 105.125 210.728 106.006 210.728 107.092C210.728 108.179 209.846 109.059 208.76 109.059Z" fill="#C1CAE7"/>
<path fill-rule="evenodd" clip-rule="evenodd" d="M208.76 117.685H184.666C183.578 117.685 182.698 116.804 182.698 115.717C182.698 114.631 183.578 113.75 184.666 113.75H208.76C209.846 113.75 210.728 114.631 210.728 115.717C210.728 116.804 209.846 117.685 208.76 117.685Z" fill="#C1CAE7"/>
<path fill-rule="evenodd" clip-rule="evenodd" d="M208.76 126.31H184.666C183.578 126.31 182.698 125.429 182.698 124.342C182.698 123.256 183.578 122.375 184.666 122.375H208.76C209.846 122.375 210.728 123.256 210.728 124.342C210.728 125.429 209.846 126.31 208.76 126.31Z" fill="#C1CAE7"/>
<path fill-rule="evenodd" clip-rule="evenodd" d="M84.5955 96.1448C81.5936 96.1448 79.1591 93.7111 79.1591 90.7091V80.7432H59.0372V89.8341H64.302C67.4406 89.8341 69.9848 92.3782 69.9848 95.5169V158.681H72.9859V122.982C72.9859 119.65 75.6859 116.949 79.0169 116.949H86.9338V96.1448H84.5955Z" fill="#D0DBF0"/>
<path fill-rule="evenodd" clip-rule="evenodd" d="M179.498 70.3519H168.612C167.974 70.3519 167.458 69.8345 167.458 69.197V63.8345C167.458 63.1971 167.974 62.6797 168.612 62.6797H179.498C180.136 62.6797 180.653 63.1971 180.653 63.8345V69.197C180.653 69.8345 180.136 70.3519 179.498 70.3519Z" fill="#E0E8F6"/>
<path fill-rule="evenodd" clip-rule="evenodd" d="M176.108 60.5192H172.002V49.8506C172.002 49.4159 172.355 49.063 172.789 49.063H175.321C175.755 49.063 176.108 49.4159 176.108 49.8506V60.5192Z" fill="#E0E8F6"/>
<path fill-rule="evenodd" clip-rule="evenodd" d="M186.289 168.742H65.57C63.866 168.742 62.483 167.361 62.483 165.655C62.483 163.95 63.866 162.568 65.57 162.568H186.289C187.994 162.568 189.376 163.95 189.376 165.655C189.376 167.361 187.994 168.742 186.289 168.742Z" fill="#7E89A0"/>
<path fill-rule="evenodd" clip-rule="evenodd" d="M259.766 174.231C259.766 166.031 253.12 159.384 244.921 159.384H233.613H225.962H31.2635C28.922 159.384 27.024 157.487 27.024 155.146C27.024 152.804 28.922 150.906 31.2635 150.906H32.5121V144.54H24.491C16.2919 144.54 9.64575 151.186 9.64575 159.384C9.64575 167.584 16.2919 174.231 24.491 174.231H230.076H240.682C243.024 174.231 244.921 176.128 244.921 178.469C244.921 180.811 243.024 182.709 240.682 182.709H232.745H211.876C210.118 182.709 208.693 184.134 208.693 185.893C208.693 187.651 210.118 189.076 211.876 189.076H245.097V189.067C253.214 188.972 259.766 182.369 259.766 174.231Z" fill="#919DB6"/>
<path fill-rule="evenodd" clip-rule="evenodd" d="M196.404 182.708H175.866C174.108 182.708 172.682 184.134 172.682 185.892C172.682 187.651 174.108 189.076 175.866 189.076H196.404C198.162 189.076 199.588 187.651 199.588 185.892C199.588 184.134 198.162 182.708 196.404 182.708Z" fill="#919DB6"/>
<path fill-rule="evenodd" clip-rule="evenodd" d="M162.533 228.656H105.766C97.4628 228.656 90.7317 221.925 90.7317 213.622V72.8202C90.7317 64.517 97.4628 57.7866 105.766 57.7866H162.533C170.836 57.7866 177.567 64.517 177.567 72.8202V213.622C177.567 221.925 170.836 228.656 162.533 228.656Z" fill="#535565"/>
<path fill-rule="evenodd" clip-rule="evenodd" d="M159.285 224.253H109.015C101.349 224.253 95.135 218.039 95.135 210.374V76.0695C95.135 68.4037 101.349 62.1899 109.015 62.1899H159.285C166.951 62.1899 173.164 68.4037 173.164 76.0695V210.374C173.164 218.039 166.951 224.253 159.285 224.253Z" fill="#FFE3E0"/>
<path fill-rule="evenodd" clip-rule="evenodd" d="M159.285 224.253H109.015C101.349 224.253 95.135 218.039 95.135 210.374V76.0695C95.135 68.4037 101.349 62.1899 109.015 62.1899H159.285C166.951 62.1899 173.164 68.4037 173.164 76.0695V210.374C173.164 218.039 166.951 224.253 159.285 224.253Z" fill="#5F0666"/>
<path fill-rule="evenodd" clip-rule="evenodd" d="M146.678 68.2909H121.622C118.485 68.2909 115.942 65.7475 115.942 62.6112V60.0894H152.357V62.6112C152.357 65.7475 149.814 68.2909 146.678 68.2909Z" fill="#535565"/>
<path fill-rule="evenodd" clip-rule="evenodd" d="M157.398 201.446H110.902C108.993 201.446 107.445 199.827 107.445 197.829V150.021C107.445 148.023 108.993 146.403 110.902 146.403H157.398C159.307 146.403 160.854 148.023 160.854 150.021V197.829C160.854 199.827 159.307 201.446 157.398 201.446Z" fill="#E5E5E5"/>
<path fill-rule="evenodd" clip-rule="evenodd" d="M156.161 98.2511H112.139C111.073 98.2511 110.208 97.3871 110.208 96.3205C110.208 95.2539 111.073 94.3892 112.139 94.3892H156.161C157.227 94.3892 158.092 95.2539 158.092 96.3205C158.092 97.3871 157.227 98.2511 156.161 98.2511Z" fill="white"/>
<path fill-rule="evenodd" clip-rule="evenodd" d="M146.633 107.208H121.666C120.6 107.208 119.735 106.344 119.735 105.277C119.735 104.21 120.6 103.346 121.666 103.346H146.633C147.7 103.346 148.565 104.21 148.565 105.277C148.565 106.344 147.7 107.208 146.633 107.208Z" fill="white"/>
<path fill-rule="evenodd" clip-rule="evenodd" d="M160.726 205.191H107.573C105.593 205.191 103.987 203.528 103.987 201.476V153.189C103.987 151.137 105.593 149.474 107.573 149.474H160.726C162.706 149.474 164.312 151.137 164.312 153.189V201.476C164.312 203.528 162.706 205.191 160.726 205.191Z" fill="#EEEEEE"/>
<path fill-rule="evenodd" clip-rule="evenodd" d="M163.85 207.946H104.45C102.415 207.946 100.766 206.297 100.766 204.262V155.912C100.766 153.879 102.415 152.229 104.45 152.229H163.85C165.885 152.229 167.534 153.879 167.534 155.912V204.262C167.534 206.297 165.885 207.946 163.85 207.946Z" fill="white"/>
<path fill-rule="evenodd" clip-rule="evenodd" d="M113.469 171.945C109.377 171.945 106.061 168.628 106.061 164.537C106.061 160.445 109.377 157.127 113.469 157.127C117.56 157.127 120.877 160.445 120.877 164.537C120.877 168.628 117.56 171.945 113.469 171.945Z" fill="#EFEFEF"/>
<path fill-rule="evenodd" clip-rule="evenodd" d="M154.89 162.791H126.419C125.742 162.791 125.194 162.243 125.194 161.566C125.194 160.89 125.742 160.342 126.419 160.342H154.89C155.566 160.342 156.114 160.89 156.114 161.566C156.114 162.243 155.566 162.791 154.89 162.791Z" fill="#EFEFEF"/>
<path fill-rule="evenodd" clip-rule="evenodd" d="M100.765 177.174H167.533V176.994H100.765V177.174Z" fill="#E2E2E2"/>
<path fill-rule="evenodd" clip-rule="evenodd" d="M159.97 201.288H109.531C108.164 201.288 107.056 200.179 107.056 198.812V193.167C107.056 191.799 108.164 190.691 109.531 190.691H159.97C161.337 190.691 162.445 191.799 162.445 193.167V198.812C162.445 200.179 161.337 201.288 159.97 201.288Z" fill="#5F0666"/>
</g>
<path d="M122.947 195.493C122.947 195.076 123.041 194.701 123.229 194.37C123.418 194.034 123.673 193.772 123.997 193.584C124.324 193.396 124.686 193.302 125.083 193.302C125.55 193.302 125.957 193.414 126.305 193.639C126.652 193.864 126.906 194.184 127.066 194.597H126.397C126.278 194.339 126.106 194.141 125.881 194.001C125.66 193.862 125.394 193.793 125.083 193.793C124.784 193.793 124.516 193.862 124.279 194.001C124.042 194.141 123.855 194.339 123.72 194.597C123.585 194.851 123.518 195.149 123.518 195.493C123.518 195.833 123.585 196.131 123.72 196.389C123.855 196.643 124.042 196.839 124.279 196.978C124.516 197.118 124.784 197.187 125.083 197.187C125.394 197.187 125.66 197.12 125.881 196.985C126.106 196.845 126.278 196.647 126.397 196.389H127.066C126.906 196.798 126.652 197.116 126.305 197.341C125.957 197.562 125.55 197.672 125.083 197.672C124.686 197.672 124.324 197.58 123.997 197.396C123.673 197.208 123.418 196.948 123.229 196.616C123.041 196.285 122.947 195.91 122.947 195.493ZM129.364 197.69C129.049 197.69 128.763 197.619 128.505 197.476C128.251 197.332 128.051 197.13 127.903 196.868C127.76 196.602 127.688 196.295 127.688 195.947C127.688 195.604 127.762 195.301 127.909 195.039C128.061 194.773 128.265 194.57 128.523 194.431C128.781 194.288 129.07 194.216 129.389 194.216C129.708 194.216 129.996 194.288 130.254 194.431C130.512 194.57 130.715 194.771 130.862 195.033C131.013 195.295 131.089 195.599 131.089 195.947C131.089 196.295 131.011 196.602 130.856 196.868C130.704 197.13 130.498 197.332 130.236 197.476C129.974 197.619 129.683 197.69 129.364 197.69ZM129.364 197.199C129.565 197.199 129.753 197.152 129.929 197.058C130.105 196.964 130.246 196.823 130.352 196.635C130.463 196.446 130.518 196.217 130.518 195.947C130.518 195.677 130.465 195.448 130.359 195.26C130.252 195.072 130.113 194.932 129.941 194.842C129.769 194.748 129.583 194.701 129.383 194.701C129.178 194.701 128.99 194.748 128.818 194.842C128.65 194.932 128.515 195.072 128.413 195.26C128.31 195.448 128.259 195.677 128.259 195.947C128.259 196.221 128.308 196.453 128.407 196.641C128.509 196.829 128.644 196.97 128.812 197.064C128.98 197.154 129.164 197.199 129.364 197.199ZM133.462 194.21C133.872 194.21 134.203 194.335 134.457 194.585C134.71 194.83 134.837 195.186 134.837 195.653V197.635H134.285V195.732C134.285 195.397 134.201 195.141 134.033 194.965C133.865 194.785 133.636 194.695 133.346 194.695C133.051 194.695 132.816 194.787 132.64 194.971C132.468 195.155 132.382 195.423 132.382 195.775V197.635H131.823V194.272H132.382V194.75C132.493 194.578 132.642 194.445 132.83 194.351C133.022 194.257 133.233 194.21 133.462 194.21ZM137.119 194.732H136.413V197.635H135.854V194.732H135.418V194.272H135.854V194.032C135.854 193.656 135.95 193.381 136.143 193.21C136.339 193.034 136.652 192.946 137.082 192.946V193.412C136.836 193.412 136.662 193.461 136.56 193.559C136.462 193.654 136.413 193.811 136.413 194.032V194.272H137.119V194.732ZM138.054 193.725C137.948 193.725 137.858 193.688 137.784 193.615C137.71 193.541 137.674 193.451 137.674 193.345C137.674 193.238 137.71 193.148 137.784 193.075C137.858 193.001 137.948 192.964 138.054 192.964C138.156 192.964 138.242 193.001 138.312 193.075C138.386 193.148 138.422 193.238 138.422 193.345C138.422 193.451 138.386 193.541 138.312 193.615C138.242 193.688 138.156 193.725 138.054 193.725ZM138.324 194.272V197.635H137.766V194.272H138.324ZM139.835 194.818C139.933 194.625 140.072 194.476 140.252 194.37C140.436 194.263 140.659 194.21 140.921 194.21V194.787H140.774C140.148 194.787 139.835 195.127 139.835 195.806V197.635H139.276V194.272H139.835V194.818ZM127.201 204.21C127.463 204.21 127.696 204.265 127.9 204.376C128.105 204.482 128.267 204.644 128.385 204.861C128.504 205.078 128.563 205.342 128.563 205.653V207.635H128.011V205.732C128.011 205.397 127.927 205.141 127.759 204.965C127.596 204.785 127.373 204.695 127.09 204.695C126.8 204.695 126.568 204.789 126.397 204.977C126.225 205.162 126.139 205.43 126.139 205.782V207.635H125.586V205.732C125.586 205.397 125.502 205.141 125.335 204.965C125.171 204.785 124.948 204.695 124.666 204.695C124.375 204.695 124.144 204.789 123.972 204.977C123.8 205.162 123.714 205.43 123.714 205.782V207.635H123.156V204.272H123.714V204.756C123.825 204.58 123.972 204.445 124.156 204.351C124.344 204.257 124.551 204.21 124.776 204.21C125.058 204.21 125.308 204.274 125.525 204.4C125.742 204.527 125.904 204.713 126.01 204.959C126.104 204.722 126.26 204.537 126.476 204.407C126.693 204.276 126.935 204.21 127.201 204.21Z" fill="white"/>
<path fill-rule="evenodd" clip-rule="evenodd" d="M128.866 167.558C128.944 167.48 128.971 167.365 128.938 167.259C128.904 167.152 128.817 167.076 128.712 167.06L127.782 166.919C127.764 166.916 127.748 166.904 127.74 166.887L127.324 166.009C127.277 165.908 127.18 165.846 127.072 165.846C126.965 165.846 126.869 165.908 126.822 166.009L126.405 166.887C126.398 166.904 126.382 166.916 126.364 166.919L125.434 167.06C125.328 167.077 125.241 167.152 125.208 167.259C125.174 167.366 125.202 167.481 125.278 167.558L125.952 168.243C125.965 168.256 125.971 168.275 125.968 168.294L125.809 169.261C125.79 169.371 125.834 169.48 125.92 169.546C126.006 169.612 126.12 169.621 126.215 169.569L127.047 169.113C127.063 169.104 127.083 169.104 127.098 169.113L127.93 169.569C127.971 169.592 128.016 169.602 128.06 169.602C128.119 169.602 128.176 169.584 128.225 169.546C128.312 169.48 128.354 169.371 128.337 169.261L128.178 168.294C128.175 168.275 128.181 168.256 128.194 168.242L128.866 167.558Z" fill="#FFD400"/>
<path fill-rule="evenodd" clip-rule="evenodd" d="M133.32 167.558C133.398 167.48 133.425 167.365 133.392 167.259C133.359 167.152 133.271 167.076 133.166 167.06L132.236 166.919C132.218 166.916 132.202 166.904 132.194 166.887L131.779 166.009C131.731 165.908 131.635 165.846 131.527 165.846C131.419 165.846 131.323 165.908 131.276 166.009L130.86 166.887C130.852 166.904 130.836 166.916 130.818 166.919L129.889 167.06C129.782 167.077 129.695 167.152 129.662 167.259C129.629 167.366 129.656 167.481 129.733 167.558L130.406 168.243C130.419 168.256 130.425 168.275 130.423 168.294L130.263 169.261C130.245 169.371 130.288 169.48 130.374 169.546C130.461 169.612 130.574 169.621 130.669 169.569L131.501 169.113C131.517 169.104 131.537 169.104 131.553 169.113L132.384 169.569C132.426 169.592 132.471 169.602 132.515 169.602C132.573 169.602 132.631 169.584 132.679 169.546C132.766 169.48 132.809 169.371 132.791 169.261L132.632 168.294C132.629 168.275 132.635 168.256 132.648 168.242L133.32 167.558Z" fill="#FFD400"/>
<path fill-rule="evenodd" clip-rule="evenodd" d="M138.109 167.558C138.186 167.48 138.213 167.365 138.18 167.259C138.147 167.152 138.059 167.076 137.954 167.06L137.024 166.919C137.006 166.916 136.99 166.904 136.982 166.887L136.567 166.009C136.519 165.908 136.423 165.846 136.315 165.846C136.207 165.846 136.111 165.908 136.064 166.009L135.648 166.887C135.641 166.904 135.624 166.916 135.607 166.919L134.677 167.06C134.57 167.077 134.483 167.152 134.45 167.259C134.417 167.366 134.445 167.481 134.521 167.558L135.194 168.243C135.208 168.256 135.213 168.275 135.211 168.294L135.051 169.261C135.033 169.371 135.076 169.48 135.162 169.546C135.249 169.612 135.363 169.621 135.457 169.569L136.289 169.113C136.305 169.104 136.325 169.104 136.341 169.113L137.172 169.569C137.214 169.592 137.259 169.602 137.303 169.602C137.361 169.602 137.419 169.584 137.467 169.546C137.555 169.48 137.597 169.371 137.579 169.261L137.42 168.294C137.417 168.275 137.423 168.256 137.436 168.242L138.109 167.558Z" fill="#FFD400"/>
<path fill-rule="evenodd" clip-rule="evenodd" d="M142.563 167.558C142.64 167.48 142.667 167.365 142.634 167.259C142.601 167.152 142.514 167.076 142.408 167.06L141.479 166.919C141.46 166.916 141.445 166.904 141.436 166.887L141.021 166.009C140.973 165.908 140.877 165.846 140.769 165.846C140.661 165.846 140.565 165.908 140.518 166.009L140.103 166.887C140.095 166.904 140.079 166.916 140.06 166.919L139.131 167.06C139.025 167.077 138.937 167.152 138.904 167.259C138.871 167.366 138.899 167.481 138.976 167.558L139.648 168.243C139.661 168.256 139.667 168.275 139.665 168.294L139.505 169.261C139.487 169.371 139.53 169.48 139.617 169.546C139.704 169.612 139.817 169.621 139.912 169.569L140.743 169.113C140.759 169.104 140.779 169.104 140.795 169.113L141.626 169.569C141.668 169.592 141.713 169.602 141.757 169.602C141.815 169.602 141.873 169.584 141.922 169.546C142.009 169.48 142.051 169.371 142.033 169.261L141.875 168.294C141.872 168.275 141.877 168.256 141.89 168.242L142.563 167.558Z" fill="#FFD400"/>
<path fill-rule="evenodd" clip-rule="evenodd" d="M147.151 167.558C147.229 167.48 147.256 167.365 147.222 167.259C147.189 167.152 147.102 167.076 146.996 167.06L146.067 166.919C146.048 166.916 146.033 166.904 146.024 166.887L145.61 166.009C145.561 165.908 145.465 165.846 145.358 165.846C145.249 165.846 145.153 165.908 145.106 166.009L144.69 166.887C144.683 166.904 144.666 166.916 144.649 166.919L143.72 167.06C143.613 167.077 143.526 167.152 143.492 167.259C143.46 167.366 143.487 167.481 143.564 167.558L144.236 168.243C144.25 168.256 144.255 168.275 144.253 168.294L144.093 169.261C144.076 169.371 144.119 169.48 144.205 169.546C144.292 169.612 144.405 169.621 144.5 169.569L145.331 169.113C145.347 169.104 145.367 169.104 145.383 169.113L146.214 169.569C146.257 169.592 146.301 169.602 146.346 169.602C146.404 169.602 146.461 169.584 146.51 169.546C146.597 169.48 146.64 169.371 146.621 169.261L146.463 168.294C146.46 168.275 146.466 168.256 146.478 168.242L147.151 167.558Z" fill="#FFD400"/>
</svg>
